<?xml version="1.0" encoding="utf-8"?>
<!-- Generator: Adobe Illustrator 19.0.0, SVG Export Plug-In . SVG Version: 6.00 Build 0)  -->
<svg version="1.1" id="Layer_1" xmlns="http://www.w3.org/2000/svg" xmlns:xlink="http://www.w3.org/1999/xlink" x="0px" y="0px"
	 viewBox="0 0 1400 980" style="enable-background:new 0 0 1400 980;" xml:space="preserve">
<style type="text/css">
	.st0{fill:#E5D3BD;}
	.st1{fill:url(#XMLID_2_);}
	.st2{opacity:0.3;fill:#D6C2AD;}
	.st3{fill:#D6C2AD;}
	.st4{fill:#C7B29E;}
	.st5{fill:#937963;}
	.st6{fill:#B29C88;}
</style>
<g id="XMLID_16688_">
	<rect id="XMLID_17811_" class="st0" width="1400" height="875"/>
	
		<linearGradient id="XMLID_2_" gradientUnits="userSpaceOnUse" x1="-680" y1="-1576.3789" x2="-680" y2="-1031.7343" gradientTransform="matrix(-1 0 0 -1 20 -819.073)">
		<stop  offset="0" style="stop-color:#ED1F24"/>
		<stop  offset="8.962709e-002" style="stop-color:#ED1F24;stop-opacity:0.9104"/>
		<stop  offset="1" style="stop-color:#ED1F24;stop-opacity:0"/>
	</linearGradient>
	<rect id="XMLID_17810_" class="st1" width="1400" height="762.7"/>
	<path id="XMLID_2650_" class="st2" d="M439.8,461.1h-0.3v11.4h-2.3v-11.4h-0.3v11.4h-1.3v-11.4h-2.2v11.4h-9.2v-11.4h-0.3v11.4
		h-2.5v-11.4h-2.2v11.4h-1.4v-3h-0.7v-8.5h-0.8v8.5h-1.3v-3h-2.4v-5.5h-0.3v5.5h-2.6v3h-4.4v-3h-1.9v-5.5h-1v5.5h-0.8v-5.5h-0.3v5.5
		h-1.9v-5.5h-2.2v5.5h-1.6v-5.5h-1v5.5h-2.1v-5.5h-2.2v5.5h-3v-5.5h-47.1v0.2h-0.4v-0.2h-1v0.2h-8.4v2.3h-1.2v-2.5h-0.3v2.5H327
		v-2.5h-1v2.5h-0.7v-2.5h-1v2.5h-5.5v-2.5h-0.3v2.5h-1v-2.5h-1v2.5h-4.4v1.7h2.4v1.7h1.9v17.1h-4.4v1.7h2.4v1.7h1.9v17.1h-4.4v1.7
		h2.4v1.7h1.9v17.1h-4.4v1.7h2.4v1.7h1.9v17.1h-4.4v1.7h2.4v1.7h1.9v17.1h-4.4v1.7h2.4v1.7h1.9v17.1h-4.4v1.7h2.4v1.7h1.9v17.1h-4.4
		v1.7h2.4v1.7h1.9v17.1h-4.4v1.7h2.4v1.7h1.9v17.1h-4.4v1.7h2.4v1.7h1.9v17.1h-4.4v1.7h2.4v1.7h1.9v19h1v-19h1v19h0.3v-19h5.5v19h1
		v-19h0.7v19h1v-19h1.8v19h0.3v-19h1.2v0.8h8.4V692h1v-18.2h0.4v2h1.9V692h2.2v-16.2h3.7V692h39.2v-12.2h3V692h2.2v-12.2h2.1V692h1
		v-12.2h1.6V692h2.2v-12.2h1.9v20.7h0.3v-20.7h0.8V692h1v-12.2h1.9v-1.7h7v22.4h0.3v-22.4h3.7V692h0.8v-13.9h0.7v-2h1.4V692h2.2
		v-15.9h2.5v24.3h0.3v-24.3h9.2V692h2.2v-15.9h1.3v24.3h0.3v-24.3h0.7v-2.2h1.5v26.6h0.3v-26.6h1.2v-2.2h-1.2v-19.9h1.2v-2.2h-1.2
		v-19.9h1.2v-2.2h-1.2v-19.9h1.2v-2.2h-1.2v-19.9h1.2v-2.2h-1.2v-19.9h1.2V561h-1.2v-19.9h1.2v-2.2h-1.2V519h1.2v-2.2h-1.2v-19.9
		h1.2v-2.2h-1.2v-19.9h1.2v-2.2h-1.2V461.1z M318.5,669.5h-1v-17.1h1V669.5z M318.5,648.9h-1v-17.1h1V648.9z M318.5,628.3h-1v-17.1
		h1V628.3z M318.5,607.7h-1v-17.1h1V607.7z M318.5,587.1h-1V570h1V587.1z M318.5,566.5h-1v-17.1h1V566.5z M318.5,545.9h-1v-17.1h1
		V545.9z M318.5,525.3h-1v-17.1h1V525.3z M318.5,504.7h-1v-17.1h1V504.7z M318.5,484.1h-1V467h1V484.1z M324.3,669.5h-5.5v-17.1h5.5
		V669.5z M324.3,648.9h-5.5v-17.1h5.5V648.9z M324.3,628.3h-5.5v-17.1h5.5V628.3z M324.3,607.7h-5.5v-17.1h5.5V607.7z M324.3,587.1
		h-5.5V570h5.5V587.1z M324.3,566.5h-5.5v-17.1h5.5V566.5z M324.3,545.9h-5.5v-17.1h5.5V545.9z M324.3,525.3h-5.5v-17.1h5.5V525.3z
		 M324.3,504.7h-5.5v-17.1h5.5V504.7z M324.3,484.1h-5.5V467h5.5V484.1z M326,669.5h-0.7v-17.1h0.7V669.5z M326,648.9h-0.7v-17.1
		h0.7V648.9z M326,628.3h-0.7v-17.1h0.7V628.3z M326,607.7h-0.7v-17.1h0.7V607.7z M326,587.1h-0.7V570h0.7V587.1z M326,566.5h-0.7
		v-17.1h0.7V566.5z M326,545.9h-0.7v-17.1h0.7V545.9z M326,525.3h-0.7v-17.1h0.7V525.3z M326,504.7h-0.7v-17.1h0.7V504.7z
		 M326,484.1h-0.7V467h0.7V484.1z M328.8,669.5H327v-17.1h1.8V669.5z M328.8,648.9H327v-17.1h1.8V648.9z M328.8,628.3H327v-17.1h1.8
		V628.3z M328.8,607.7H327v-17.1h1.8V607.7z M328.8,587.1H327V570h1.8V587.1z M328.8,566.5H327v-17.1h1.8V566.5z M328.8,545.9H327
		v-17.1h1.8V545.9z M328.8,525.3H327v-17.1h1.8V525.3z M328.8,504.7H327v-17.1h1.8V504.7z M328.8,484.1H327V467h1.8V484.1z
		 M338.8,667.2h-8.4v2.3h-1.2v-17.1h1.2v0.8h8.4V667.2z M338.8,646.6h-8.4v2.3h-1.2v-17.1h1.2v0.8h8.4V646.6z M338.8,626h-8.4v2.3
		h-1.2v-17.1h1.2v0.8h8.4V626z M338.8,605.4h-8.4v2.3h-1.2v-17.1h1.2v0.8h8.4V605.4z M338.8,584.8h-8.4v2.3h-1.2V570h1.2v0.8h8.4
		V584.8z M338.8,564.2h-8.4v2.3h-1.2v-17.1h1.2v0.8h8.4V564.2z M338.8,543.6h-8.4v2.3h-1.2v-17.1h1.2v0.8h8.4V543.6z M338.8,523
		h-8.4v2.3h-1.2v-17.1h1.2v0.8h8.4V523z M338.8,502.4h-8.4v2.3h-1.2v-17.1h1.2v0.8h8.4V502.4z M338.8,481.8h-8.4v2.3h-1.2V467h1.2
		v0.8h8.4V481.8z M342.1,664.9h-1.9v2.3h-0.4v-14h0.4v2h1.9V664.9z M342.1,644.3h-1.9v2.3h-0.4v-14h0.4v2h1.9V644.3z M342.1,623.7
		h-1.9v2.3h-0.4v-14h0.4v2h1.9V623.7z M342.1,603.1h-1.9v2.3h-0.4v-14h0.4v2h1.9V603.1z M342.1,582.5h-1.9v2.3h-0.4v-14h0.4v2h1.9
		V582.5z M342.1,561.9h-1.9v2.3h-0.4v-14h0.4v2h1.9V561.9z M342.1,541.3h-1.9v2.3h-0.4v-14h0.4v2h1.9V541.3z M342.1,520.7h-1.9v2.3
		h-0.4v-14h0.4v2h1.9V520.7z M342.1,500.1h-1.9v2.3h-0.4v-14h0.4v2h1.9V500.1z M342.1,479.5h-1.9v2.3h-0.4v-14h0.4v2h1.9V479.5z
		 M348,664.9h-3.7v-9.7h3.7V664.9z M348,644.3h-3.7v-9.7h3.7V644.3z M348,623.7h-3.7V614h3.7V623.7z M348,603.1h-3.7v-9.7h3.7V603.1
		z M348,582.5h-3.7v-9.7h3.7V582.5z M348,561.9h-3.7v-9.7h3.7V561.9z M348,541.3h-3.7v-9.7h3.7V541.3z M348,520.7h-3.7v-9.7h3.7
		V520.7z M348,500.1h-3.7v-9.7h3.7V500.1z M348,479.5h-3.7v-9.7h3.7V479.5z M390.2,665.8h-3v-8.1h3V665.8z M390.2,643.7h-3v-8.1h3
		V643.7z M390.2,621.5h-3v-8.1h3V621.5z M390.2,599.4h-3v-8.1h3V599.4z M390.2,577.3h-3v-8.1h3V577.3z M390.2,555.1h-3V547h3V555.1z
		 M390.2,533h-3v-8.1h3V533z M390.2,510.9h-3v-8.1h3V510.9z M390.2,488.7h-3v-8.1h3V488.7z M394.6,665.8h-2.1v-8.1h2.1V665.8z
		 M394.6,643.7h-2.1v-8.1h2.1V643.7z M394.6,621.5h-2.1v-8.1h2.1V621.5z M394.6,599.4h-2.1v-8.1h2.1V599.4z M394.6,577.3h-2.1v-8.1
		h2.1V577.3z M394.6,555.1h-2.1V547h2.1V555.1z M394.6,533h-2.1v-8.1h2.1V533z M394.6,510.9h-2.1v-8.1h2.1V510.9z M394.6,488.7h-2.1
		v-8.1h2.1V488.7z M397.2,665.8h-1.6v-8.1h1.6V665.8z M397.2,643.7h-1.6v-8.1h1.6V643.7z M397.2,621.5h-1.6v-8.1h1.6V621.5z
		 M397.2,599.4h-1.6v-8.1h1.6V599.4z M397.2,577.3h-1.6v-8.1h1.6V577.3z M397.2,555.1h-1.6V547h1.6V555.1z M397.2,533h-1.6v-8.1h1.6
		V533z M397.2,510.9h-1.6v-8.1h1.6V510.9z M397.2,488.7h-1.6v-8.1h1.6V488.7z M401.2,665.8h-1.9v-8.1h1.9V665.8z M401.2,643.7h-1.9
		v-8.1h1.9V643.7z M401.2,621.5h-1.9v-8.1h1.9V621.5z M401.2,599.4h-1.9v-8.1h1.9V599.4z M401.2,577.3h-1.9v-8.1h1.9V577.3z
		 M401.2,555.1h-1.9V547h1.9V555.1z M401.2,533h-1.9v-8.1h1.9V533z M401.2,510.9h-1.9v-8.1h1.9V510.9z M401.2,488.7h-1.9v-8.1h1.9
		V488.7z M402.3,665.8h-0.8v-8.1h0.8V665.8z M402.3,643.7h-0.8v-8.1h0.8V643.7z M402.3,621.5h-0.8v-8.1h0.8V621.5z M402.3,599.4
		h-0.8v-8.1h0.8V599.4z M402.3,577.3h-0.8v-8.1h0.8V577.3z M402.3,555.1h-0.8V547h0.8V555.1z M402.3,533h-0.8v-8.1h0.8V533z
		 M402.3,510.9h-0.8v-8.1h0.8V510.9z M402.3,488.7h-0.8v-8.1h0.8V488.7z M412.2,665.8h-2.6v3h-4.4v-3h-1.9v-8.1h1.9V656h7V665.8z
		 M412.2,643.7h-2.6v3h-4.4v-3h-1.9v-8.1h1.9v-1.7h7V643.7z M412.2,624.5h-2.6h-4.4v-3h-1.9v-8.1h1.9v-1.7h7V624.5z M412.2,602.4h-1
		v-3h-5.4v3h-0.6v-3h-1.9v-8.1h1.9v-1.7h7V602.4z M412.2,580.2h-1v-3h-5.4v3h-0.7v-3h-1.9v-8.1h1.9v-1.7h7V580.2z M412.2,555.1h-2.6
		v3h-4.4v-3h-1.9V547h1.9v-1.7h7V555.1z M412.2,533h-2.6v3h-4.4v-3h-1.9v-8.1h1.9v-1.7h7V533z M412.2,510.9H408v3h-2.7v-3h-1.9v-8.1
		h1.9V501h7V510.9z M412.2,491.7h-2.6h-4.4v-3h-1.9v-8.1h1.9v-1.7h7V491.7z M416.2,668.7h-1.3v-3h-2.4V656h3.7V668.7z M416.2,646.6
		h-1.3v-3h-2.4v-9.8h3.7V646.6z M416.2,624.5h-1.3h-2.4v-12.8h3.7V624.5z M416.2,602.4h-3.7v-12.8h3.7V602.4z M416.2,580.2h-3.7
		v-12.8h3.7V580.2z M416.2,558.1h-1.3v-3h-2.4v-9.8h3.7V558.1z M416.2,536h-1.3v-3h-2.4v-9.8h3.7V536z M416.2,513.8h-2.9v-3h-0.8
		V501h3.7V513.8z M416.2,491.7h-1.3h-2.4v-12.8h3.7V491.7z M419.2,671.7h-1.4v-3h-0.7V656h0.7v-2h1.4V671.7z M419.2,649.6h-1.4v-3
		h-0.7v-12.8h0.7v-2h1.4V649.6z M419.2,627.4h-1.4v-3h-0.7v-12.8h0.7v-2h1.4V627.4z M419.2,605.3h-1.4v-3h-0.7v-12.8h0.7v-2h1.4
		V605.3z M419.2,583.2h-1.4v-3h-0.7v-12.8h0.7v-2h1.4V583.2z M419.2,561h-1.4v-3h-0.7v-12.8h0.7v-2h1.4V561z M419.2,538.9h-1.4v-3
		h-0.7v-12.8h0.7v-2h1.4V538.9z M419.2,516.8h-1.4v-3h-0.7V501h0.7v-2h1.4V516.8z M419.2,494.7h-1.4v-3h-0.7v-12.8h0.7v-2h1.4V494.7
		z M423.8,671.7h-2.5V654h2.5V671.7z M423.8,649.6h-2.5v-17.7h2.5V649.6z M423.8,627.4h-2.5v-17.7h2.5V627.4z M423.8,605.3h-2.5
		v-17.7h2.5V605.3z M423.8,583.2h-2.5v-17.7h2.5V583.2z M423.8,561h-2.5v-17.7h2.5V561z M423.8,538.9h-2.5v-17.7h2.5V538.9z
		 M423.8,516.8h-2.5v-17.7h2.5V516.8z M423.8,494.7h-2.5v-17.7h2.5V494.7z M433.4,671.7h-9.2V654h9.2V671.7z M433.4,649.6h-9.2
		v-17.7h9.2V649.6z M433.4,627.4h-9.2v-17.7h9.2V627.4z M433.4,605.3h-9.2v-17.7h9.2V605.3z M433.4,583.2h-9.2v-17.7h9.2V583.2z
		 M433.4,561h-9.2v-17.7h9.2V561z M433.4,538.9h-9.2v-17.7h9.2V538.9z M433.4,516.8h-9.2v-17.7h9.2V516.8z M433.4,494.7h-9.2v-17.7
		h9.2V494.7z M436.9,671.7h-1.3V654h1.3V671.7z M436.9,649.6h-1.3v-17.7h1.3V649.6z M436.9,627.4h-1.3v-17.7h1.3V627.4z
		 M436.9,605.3h-1.3v-17.7h1.3V605.3z M436.9,583.2h-1.3v-17.7h1.3V583.2z M436.9,561h-1.3v-17.7h1.3V561z M436.9,538.9h-1.3v-17.7
		h1.3V538.9z M436.9,516.8h-1.3v-17.7h1.3V516.8z M436.9,494.7h-1.3v-17.7h1.3V494.7z M439.5,671.7h-2.3V654h0.7v-2.2h1.5V671.7z
		 M439.5,649.6h-2.3v-17.7h0.7v-2.2h1.5V649.6z M439.5,627.4h-2.3v-17.7h0.7v-2.2h1.5V627.4z M439.5,605.3h-2.3v-17.7h0.7v-2.2h1.5
		V605.3z M439.5,583.2h-2.3v-17.7h0.7v-2.2h1.5V583.2z M439.5,561h-2.3v-17.7h0.7v-2.2h1.5V561z M439.5,538.9h-2.3v-17.7h0.7V519
		h1.5V538.9z M439.5,516.8h-2.3v-17.7h0.7v-2.2h1.5V516.8z M439.5,494.7h-2.3v-17.7h0.7v-2.2h1.5V494.7z"/>
	<path id="XMLID_61840_" class="st2" d="M948.3,473.4h-0.4v15.3h-3.1v-15.3h-0.4v15.3h-1.7v-15.3h-2.9v15.3h-12.4v-15.3h-0.4v15.3
		h-3.3v-15.3h-2.9v15.3h-1.9v-4h-0.9v-11.4h-1.1v11.4H915v-4h-3.2v-7.4h-0.4v7.4h-3.5v4h-5.8v-4h-2.5v-7.4H898v7.4h-1v-7.4h-0.4v7.4
		h-2.5v-7.4h-2.9v7.4h-2.2v-7.4h-1.3v7.4h-2.9v-7.4h-2.9v7.4h-4.1v-7.4h-63.1v0.2h-0.5v-0.2h-1.3v0.2h-11.3v3.1h-1.6v-3.3h-0.4v3.3
		H797v-3.3h-1.3v3.3h-1v-3.3h-1.3v3.3h-7.3v-3.3h-0.4v3.3h-1.3v-3.3H783v3.3h-5.8v2.3h3.2v2.3h2.6v23h-5.8v2.3h3.2v2.3h2.6v23h-5.8
		v2.3h3.2v2.3h2.6v23h-5.8v2.3h3.2v2.3h2.6v23h-5.8v2.3h3.2v2.3h2.6v23h-5.8v2.3h3.2v2.3h2.6v23h-5.8v2.3h3.2v2.3h2.6v23h-5.8v2.3
		h3.2v2.3h2.6v23h-5.8v2.3h3.2v2.3h2.6v23h-5.8v2.3h3.2v2.3h2.6v23h-5.8v2.3h3.2v2.3h2.6v25.5h1.3v-25.5h1.3v25.5h0.4v-25.5h7.3
		v25.5h1.3v-25.5h1v25.5h1.3v-25.5h2.4v25.5h0.4v-25.5h1.6v1.1h11.3v24.4h1.3v-24.4h0.5v2.7h2.6v21.7h2.9v-21.7h5v21.7h52.6v-16.3
		h4.1v16.3h2.9v-16.3h2.9v16.3h1.3v-16.3h2.2v16.3h2.9v-16.3h2.5v27.7h0.4v-27.7h1v16.3h1.3v-16.3h2.5v-2.3h9.4v30h0.4v-30h5v18.6
		h1.1v-18.6h0.9v-2.6h1.9v21.3h2.9v-21.3h3.3v32.7h0.4v-32.7h12.4v21.3h2.9v-21.3h1.7v32.7h0.4v-32.7h1v-3h2.1v35.6h0.4v-35.6h1.6
		v-3h-1.6v-26.7h1.6v-3h-1.6v-26.7h1.6v-3h-1.6v-26.7h1.6v-3h-1.6v-26.7h1.6v-3h-1.6v-26.7h1.6v-3h-1.6v-26.7h1.6v-3h-1.6v-26.7h1.6
		v-3h-1.6v-26.7h1.6v-3h-1.6v-26.7h1.6v-3h-1.6V473.4z M785.6,752.9h-1.3v-23h1.3V752.9z M785.6,725.3h-1.3v-23h1.3V725.3z
		 M785.6,697.7h-1.3v-23h1.3V697.7z M785.6,670.1h-1.3v-23h1.3V670.1z M785.6,642.4h-1.3v-23h1.3V642.4z M785.6,614.8h-1.3v-23h1.3
		V614.8z M785.6,587.2h-1.3v-23h1.3V587.2z M785.6,559.6h-1.3v-23h1.3V559.6z M785.6,532h-1.3v-23h1.3V532z M785.6,504.3h-1.3v-23
		h1.3V504.3z M793.4,752.9h-7.3v-23h7.3V752.9z M793.4,725.3h-7.3v-23h7.3V725.3z M793.4,697.7h-7.3v-23h7.3V697.7z M793.4,670.1
		h-7.3v-23h7.3V670.1z M793.4,642.4h-7.3v-23h7.3V642.4z M793.4,614.8h-7.3v-23h7.3V614.8z M793.4,587.2h-7.3v-23h7.3V587.2z
		 M793.4,559.6h-7.3v-23h7.3V559.6z M793.4,532h-7.3v-23h7.3V532z M793.4,504.3h-7.3v-23h7.3V504.3z M795.7,752.9h-1v-23h1V752.9z
		 M795.7,725.3h-1v-23h1V725.3z M795.7,697.7h-1v-23h1V697.7z M795.7,670.1h-1v-23h1V670.1z M795.7,642.4h-1v-23h1V642.4z
		 M795.7,614.8h-1v-23h1V614.8z M795.7,587.2h-1v-23h1V587.2z M795.7,559.6h-1v-23h1V559.6z M795.7,532h-1v-23h1V532z M795.7,504.3
		h-1v-23h1V504.3z M799.4,752.9H797v-23h2.4V752.9z M799.4,725.3H797v-23h2.4V725.3z M799.4,697.7H797v-23h2.4V697.7z M799.4,670.1
		H797v-23h2.4V670.1z M799.4,642.4H797v-23h2.4V642.4z M799.4,614.8H797v-23h2.4V614.8z M799.4,587.2H797v-23h2.4V587.2z
		 M799.4,559.6H797v-23h2.4V559.6z M799.4,532H797v-23h2.4V532z M799.4,504.3H797v-23h2.4V504.3z M812.8,749.8h-11.3v3.1h-1.6v-23
		h1.6v1.1h11.3V749.8z M812.8,722.2h-11.3v3.1h-1.6v-23h1.6v1.1h11.3V722.2z M812.8,694.6h-11.3v3.1h-1.6v-23h1.6v1.1h11.3V694.6z
		 M812.8,667h-11.3v3.1h-1.6v-23h1.6v1.1h11.3V667z M812.8,639.4h-11.3v3.1h-1.6v-23h1.6v1.1h11.3V639.4z M812.8,611.7h-11.3v3.1
		h-1.6v-23h1.6v1.1h11.3V611.7z M812.8,584.1h-11.3v3.1h-1.6v-23h1.6v1.1h11.3V584.1z M812.8,556.5h-11.3v3.1h-1.6v-23h1.6v1.1h11.3
		V556.5z M812.8,528.9h-11.3v3.1h-1.6v-23h1.6v1.1h11.3V528.9z M812.8,501.2h-11.3v3.1h-1.6v-23h1.6v1.1h11.3V501.2z M817.2,746.7
		h-2.6v3.1h-0.5v-18.8h0.5v2.7h2.6V746.7z M817.2,719.1h-2.6v3.1h-0.5v-18.8h0.5v2.7h2.6V719.1z M817.2,691.5h-2.6v3.1h-0.5v-18.8
		h0.5v2.7h2.6V691.5z M817.2,663.9h-2.6v3.1h-0.5v-18.8h0.5v2.7h2.6V663.9z M817.2,636.3h-2.6v3.1h-0.5v-18.8h0.5v2.7h2.6V636.3z
		 M817.2,608.6h-2.6v3.1h-0.5V593h0.5v2.7h2.6V608.6z M817.2,581h-2.6v3.1h-0.5v-18.8h0.5v2.7h2.6V581z M817.2,553.4h-2.6v3.1h-0.5
		v-18.8h0.5v2.7h2.6V553.4z M817.2,525.8h-2.6v3.1h-0.5v-18.8h0.5v2.7h2.6V525.8z M817.2,498.2h-2.6v3.1h-0.5v-18.8h0.5v2.7h2.6
		V498.2z M825.2,746.7h-5v-12.9h5V746.7z M825.2,719.1h-5v-12.9h5V719.1z M825.2,691.5h-5v-12.9h5V691.5z M825.2,663.9h-5v-12.9h5
		V663.9z M825.2,636.3h-5v-12.9h5V636.3z M825.2,608.6h-5v-12.9h5V608.6z M825.2,581h-5v-12.9h5V581z M825.2,553.4h-5v-12.9h5V553.4
		z M825.2,525.8h-5v-12.9h5V525.8z M825.2,498.2h-5v-12.9h5V498.2z M881.8,748h-4.1v-10.9h4.1V748z M881.8,718.3h-4.1v-10.9h4.1
		V718.3z M881.8,688.6h-4.1v-10.9h4.1V688.6z M881.8,658.9h-4.1v-10.9h4.1V658.9z M881.8,629.3h-4.1v-10.9h4.1V629.3z M881.8,599.6
		h-4.1v-10.9h4.1V599.6z M881.8,569.9h-4.1V559h4.1V569.9z M881.8,540.2h-4.1v-10.9h4.1V540.2z M881.8,510.5h-4.1v-10.9h4.1V510.5z
		 M887.6,748h-2.9v-10.9h2.9V748z M887.6,718.3h-2.9v-10.9h2.9V718.3z M887.6,688.6h-2.9v-10.9h2.9V688.6z M887.6,658.9h-2.9v-10.9
		h2.9V658.9z M887.6,629.3h-2.9v-10.9h2.9V629.3z M887.6,599.6h-2.9v-10.9h2.9V599.6z M887.6,569.9h-2.9V559h2.9V569.9z
		 M887.6,540.2h-2.9v-10.9h2.9V540.2z M887.6,510.5h-2.9v-10.9h2.9V510.5z M891.1,748h-2.2v-10.9h2.2V748z M891.1,718.3h-2.2v-10.9
		h2.2V718.3z M891.1,688.6h-2.2v-10.9h2.2V688.6z M891.1,658.9h-2.2v-10.9h2.2V658.9z M891.1,629.3h-2.2v-10.9h2.2V629.3z
		 M891.1,599.6h-2.2v-10.9h2.2V599.6z M891.1,569.9h-2.2V559h2.2V569.9z M891.1,540.2h-2.2v-10.9h2.2V540.2z M891.1,510.5h-2.2
		v-10.9h2.2V510.5z M896.6,748h-2.5v-10.9h2.5V748z M896.6,718.3h-2.5v-10.9h2.5V718.3z M896.6,688.6h-2.5v-10.9h2.5V688.6z
		 M896.6,658.9h-2.5v-10.9h2.5V658.9z M896.6,629.3h-2.5v-10.9h2.5V629.3z M896.6,599.6h-2.5v-10.9h2.5V599.6z M896.6,569.9h-2.5
		V559h2.5V569.9z M896.6,540.2h-2.5v-10.9h2.5V540.2z M896.6,510.5h-2.5v-10.9h2.5V510.5z M898,748h-1v-10.9h1V748z M898,718.3h-1
		v-10.9h1V718.3z M898,688.6h-1v-10.9h1V688.6z M898,658.9h-1v-10.9h1V658.9z M898,629.3h-1v-10.9h1V629.3z M898,599.6h-1v-10.9h1
		V599.6z M898,569.9h-1V559h1V569.9z M898,540.2h-1v-10.9h1V540.2z M898,510.5h-1v-10.9h1V510.5z M911.3,748h-3.5v4h-5.8v-4h-2.5
		v-10.9h2.5v-2.3h9.4V748z M911.3,718.3h-3.5v4h-5.8v-4h-2.5v-10.9h2.5v-2.3h9.4V718.3z M911.3,692.6h-3.5h-5.8v-4h-2.5v-10.9h2.5
		v-2.3h9.4V692.6z M911.3,662.9h-1.4v-4h-7.2v4h-0.8v-4h-2.5v-10.9h2.5v-2.3h9.4V662.9z M911.3,633.2H910v-4h-7.2v4h-0.9v-4h-2.5
		v-10.9h2.5v-2.3h9.4V633.2z M911.3,599.6h-3.5v4h-5.8v-4h-2.5v-10.9h2.5v-2.3h9.4V599.6z M911.3,569.9h-3.5v4h-5.8v-4h-2.5V559h2.5
		v-2.3h9.4V569.9z M911.3,540.2h-5.7v4h-3.7v-4h-2.5v-10.9h2.5V527h9.4V540.2z M911.3,514.5h-3.5h-5.8v-4h-2.5v-10.9h2.5v-2.3h9.4
		V514.5z M916.7,751.9H915v-4h-3.2v-13.2h5V751.9z M916.7,722.3H915v-4h-3.2v-13.2h5V722.3z M916.7,692.6H915h-3.2v-17.1h5V692.6z
		 M916.7,662.9h-5v-17.1h5V662.9z M916.7,633.2h-5v-17.1h5V633.2z M916.7,603.5H915v-4h-3.2v-13.2h5V603.5z M916.7,573.8H915v-4
		h-3.2v-13.2h5V573.8z M916.7,544.2h-3.9v-4h-1.1V527h5V544.2z M916.7,514.5H915h-3.2v-17.1h5V514.5z M920.6,755.9h-1.9v-4h-0.9
		v-17.1h0.9v-2.6h1.9V755.9z M920.6,726.2h-1.9v-4h-0.9v-17.1h0.9v-2.6h1.9V726.2z M920.6,696.5h-1.9v-4h-0.9v-17.1h0.9v-2.6h1.9
		V696.5z M920.6,666.9h-1.9v-4h-0.9v-17.1h0.9v-2.6h1.9V666.9z M920.6,637.2h-1.9v-4h-0.9v-17.1h0.9v-2.6h1.9V637.2z M920.6,607.5
		h-1.9v-4h-0.9v-17.1h0.9v-2.6h1.9V607.5z M920.6,577.8h-1.9v-4h-0.9v-17.1h0.9v-2.6h1.9V577.8z M920.6,548.1h-1.9v-4h-0.9V527h0.9
		v-2.6h1.9V548.1z M920.6,518.4h-1.9v-4h-0.9v-17.1h0.9v-2.6h1.9V518.4z M926.9,755.9h-3.3v-23.7h3.3V755.9z M926.9,726.2h-3.3
		v-23.7h3.3V726.2z M926.9,696.5h-3.3v-23.7h3.3V696.5z M926.9,666.9h-3.3v-23.7h3.3V666.9z M926.9,637.2h-3.3v-23.7h3.3V637.2z
		 M926.9,607.5h-3.3v-23.7h3.3V607.5z M926.9,577.8h-3.3v-23.7h3.3V577.8z M926.9,548.1h-3.3v-23.7h3.3V548.1z M926.9,518.4h-3.3
		v-23.7h3.3V518.4z M939.7,755.9h-12.4v-23.7h12.4V755.9z M939.7,726.2h-12.4v-23.7h12.4V726.2z M939.7,696.5h-12.4v-23.7h12.4
		V696.5z M939.7,666.9h-12.4v-23.7h12.4V666.9z M939.7,637.2h-12.4v-23.7h12.4V637.2z M939.7,607.5h-12.4v-23.7h12.4V607.5z
		 M939.7,577.8h-12.4v-23.7h12.4V577.8z M939.7,548.1h-12.4v-23.7h12.4V548.1z M939.7,518.4h-12.4v-23.7h12.4V518.4z M944.4,755.9
		h-1.7v-23.7h1.7V755.9z M944.4,726.2h-1.7v-23.7h1.7V726.2z M944.4,696.5h-1.7v-23.7h1.7V696.5z M944.4,666.9h-1.7v-23.7h1.7V666.9
		z M944.4,637.2h-1.7v-23.7h1.7V637.2z M944.4,607.5h-1.7v-23.7h1.7V607.5z M944.4,577.8h-1.7v-23.7h1.7V577.8z M944.4,548.1h-1.7
		v-23.7h1.7V548.1z M944.4,518.4h-1.7v-23.7h1.7V518.4z M947.9,755.9h-3.1v-23.7h1v-3h2.1V755.9z M947.9,726.2h-3.1v-23.7h1v-3h2.1
		V726.2z M947.9,696.5h-3.1v-23.7h1v-3h2.1V696.5z M947.9,666.9h-3.1v-23.7h1v-3h2.1V666.9z M947.9,637.2h-3.1v-23.7h1v-3h2.1V637.2
		z M947.9,607.5h-3.1v-23.7h1v-3h2.1V607.5z M947.9,577.8h-3.1v-23.7h1v-3h2.1V577.8z M947.9,548.1h-3.1v-23.7h1v-3h2.1V548.1z
		 M947.9,518.4h-3.1v-23.7h1v-3h2.1V518.4z"/>
	<g id="XMLID_2648_">
		<polygon id="XMLID_16486_" class="st3" points="974.5,137.6 974.5,131.4 966.8,131.4 966.8,137.6 970.2,137.6 970.2,291.8 
			967.4,291.8 967.4,297.9 973.8,297.9 973.8,291.8 971.1,291.8 971.1,137.6 		"/>
		<polygon id="XMLID_16490_" class="st3" points="334.8,342.8 334.8,338.6 329.6,338.6 329.6,342.8 331.9,342.8 331.9,445.6 
			330,445.6 330,449.7 334.3,449.7 334.3,445.6 332.5,445.6 332.5,342.8 		"/>
		<path id="XMLID_16493_" class="st3" d="M1390.5,712.9c-0.1-0.2-0.2-0.4-0.3-0.5c-1.5-2-2.9-2.7-3.7-5.5c-0.5-1.7-0.2-3.6-1.1-5
			c-1-1.8-2.6-1.7-3.9-2.8c-2.6-2.2-1.3-2.4-2.6-4.9c-0.5-0.9-1.4-1-2.1-1.9c-1.5-2.1-3.4-4-4.9-6c-2.5-3.1-2.6-2.7-6.2-2.6
			c-4.9,0.1-4.1-1.5-6.9-5.1c-1.4-1.8-3.5-3.8-5.6-5.7v-10.2h3.1v-2.9h-3.1v-26.2h3.1v-2.9h-3.1v-26.2h3.1v-2.9h-3.1v-26.2h3.1v-2.9
			h-3.1V546h3.1v-2.9h-3.1v-26.2h3.1v-2.9h-3.1v-26.2h3.1v-2.9h-3.1v-26.2h3.1v-2.9h-3.1v-26.2h3.1v-2.9h-3.1v-26.2h3.1v-2.9h-3.1
			V371h3.1v-2.9h-3.1v-16.5h-0.9v16.5h-5.8v-16.5h-0.9v16.5h-3.3v-23.3h6v-2.9h7.9v-2.9h-14v-19.7h10.4v-2.9h-10.4v-29.4h-5.6v29.4
			h-24.1v-1.5h-6.8v-27.9h-0.8v-6.2h-11.7v-5.8h-33.8v-6.2h-2.5v6.2h-8.5v-6.2h-3.9v6.2h-10.6v-6.2h-7.2v6.2h-8.7v-5.2h-7.8v-68.6
			h3.5v-3.3h-3.5v-1.1h3.5v-3.3h-3.5v-16.8h3.5v-3.3h-3.5h-1.6v-1.1h5.1v-3.3h-7.6v-3.3h-3.5v-3.3h3.5v-3.3h-5.1v-18.4h1.1v-1.1
			h-1.1v-0.4h1.1v-1.1h-1.1v-3.8h4v-3.1h18.3v0.8h35.8v-0.8h16.9v13.9h14.8v-21.5h-8.1l-84.3-36.2v-2.4h-4.1V87l-222.9,37.1l0.1,0.5
			h-67.9v0.9h5.8l-2.4,5.1h-6.5v0.9h275.1v3.1h14.6h0.9h1v3.8h-1v1.1h1v0.4h-1v1.1h1v18.4h-4.7v3.3h3.5v3.3h-3.5v3.3h-7.6v3.3h5.1
			v1.1h-1.9h-3.2v3.3h3.2v16.8h-3.2v3.3h3.2v1.1h-3.2v3.3h3.2v68.6h-45.9v-9.1h-3.9v9.1h-3.4v-9.1h-3.9v9.1h-8.4v5.2h-9.7v5.8v6.2
			h-5.5v4.9h-5.9v-4.9h-2.5v49.3h-21.6v3h-3.1v-17.4h-0.9v17.4h-4.7v-8.3h-2.5v8.3h-1.8v-8.3h-2.5v8.3h-14v-8.3h-0.9v8.3h-2.6v-8.3
			h-2.5v8.3H1026v2.3h6.2v2.3h5v22.6H1026v2.3h6.2v2.3h5v22.6H1026v2.3h6.2v2.3h5v22.6H1026v2.3h6.2v2.3h5v22.6H1026v2.3h6.2v2.3h5
			v22.6H1026v2.3h6.2v2.3h5v22.6H1026v2.3h6.2v2.3h5v22.6H1026v2.3h6.2v2.3h5v22.6H1026v2.3h6.2v2.3h5v22.6H1026v2.3h6.2v2.3h5v22.6
			H1026v2.3h6.2v2.3h5v22.6H1026v2.3h6.2v2.3h5v22.6H1026v2.3h6.2v2.3h5V680c-3.7-0.3-8.3-2.5-11.1-0.4c-1.3,1-0.9,4.1-2.7,5.5
			c-1.7,1.3-3,1.1-5,1.3c0.1,1-0.4,2.1-0.3,3.1c-3.3,0.9-7.1-0.3-10.6,0.4c-4.3,0.8-9,0.3-13.1,1.1c-4.1,0.8-3.6,6.9-7.1,7.9
			c-2,0.5-4.6-2.8-6-3.5c-2.2-1.1-4.4-1.2-7-1.4c-3.5,8-11.6,11-20,10.6c-1.3-0.1-3.9-1-5-0.6c-3.3,1.1-1.3,1.6-1.4,3.7
			c-0.2,6-1.7,11.5-9.2,12.5l0.2,1.1l-38.8,16l-31.2,2.4v-28.1h-23.7h-20.6h-10.4l-20.6,1.5H766v25.5l-42.3,11.3l-7.3,10.6
			l-20.4,0.7l-8.8-4.5h-65.6c0,0-118.9,8.1-126.9,5.9c-2.2-0.6-12.3-1.1-26.1-1.6c8.6-1.4,17.6-3.3,25.7-5.8c5.9-1.9,5.1-3.9,6-9.1
			c0.8-4.7,2.3-10.2,5.9-13.2c3.8-3.2,8-3.2,9.2-8.1c1-3.8,0.6-8.1-1.7-11c-1.5-2-2.9-2.7-3.7-5.5c-0.5-1.7-0.2-3.6-1.1-5
			c-1.1-1.8-2.6-1.7-3.9-2.8c-2.6-2.2-1.3-2.4-2.6-4.9c-0.5-0.9-1.4-1-2.1-1.9c-1.5-2.1-3.4-4-4.9-6c-2.5-3.1-2.6-2.7-6.2-2.6
			c-4.9,0.1-4.1-1.5-6.9-5.1c-2.5-3.3-7.2-7.3-10.7-9.8c-1.6,3.7-3.8,3.2-4.3-0.1c-0.4-2.7,1.8-6.2,0.5-8.6c-1.1-2.1-4.1-2.2-6-2.8
			c-3.9-1.3-7.8-2.9-11.6-4.4c-3.9-1.5-8.1-6-12.3-5.2c-5,1.1-5.5,5.6-10.9,3.6c-2.7-1-4.8-1.4-7.7-1.7c-3.9-0.4-6.4,1-10.1,1.1
			c-2.8,0.1-4.2-1.4-6.5-2.3c-6.1-2.3-8,3.6-13.3,4.5c-2.1,0.3-4.4-1.1-6.5-0.7c-1.9,0.4-2.8,1.6-4.7,1.9c-5.4,1-12.9-2.8-18.1-0.8
			c-0.2,0.1-0.3,0.2-0.5,0.3c-0.6-0.8-1.5-0.9-2.2-1.9c-1.8-2.4-4-4.7-5.8-7.1c-2.9-3.6-3.1-3.2-7.4-3.1c-5.8,0.1-4.8-1.8-8.1-6
			c-3-3.8-8.5-8.6-12.7-11.5c-1.9,4.4-4.5,3.8-5.1-0.2c-0.5-3.2,2.2-7.3,0.6-10.2c-1.3-2.4-4.8-2.6-7.1-3.4
			c-4.7-1.5-9.2-3.4-13.8-5.1c-0.9-0.3-1.8-0.8-2.8-1.4v-1.2h-2c-1.8-1.1-3.6-2.3-5.5-3v-12.1h3.3v-1.5h4.1v-1.5h-7.4v-15.1h3.3
			v-1.5h4.1v-1.5h-7.4v-15.1h3.3v-1.5h4.1v-1.5h-7.4v-15.1h3.3v-1.5h4.1v-1.5h-7.4v-15.1h3.3V515h4.1v-1.5h-7.4v-15.1h3.3v-1.5h4.1
			v-1.5h-7.4v-15.1h3.3v-1.5h4.1v-1.5h-7.4v-5.6h-1.7v5.6h-1.7v-5.6h-0.6v5.6h-9.3v-5.6h-1.7v5.6h-1.2v-5.6h-1.7v5.6h-3.1v-11.6
			h-0.6v11.6h-2.1v-2h-14.4v-32.9h-1.7v3.2h-3.9v-3.2h-3.7v-4.1v-3.9h-6.5v-3.5h-5.6v-6.1h-2.6v6.1h-2.3v-6.1H221v6.1h-30.6v-45.8
			h2.1V383h-2.1v-0.7h2.1V380h-2.1v-11.2h2.1v-2.2h-2.1h-1.3v-0.7h3.4v-2.2h-5.1v-2.2h-2.3v-2.2h2.3v-2.2h-3.2v-12.3h0.7v-0.7h-0.7
			V344h0.7v-0.7h-0.7v-2.6h0.7h0.6h9.7v-2.1h183.5V338h-4.3l-1.6-3.4h3.9v-0.6h-45.3l0.1-0.3L182.9,309v-1.3h-2.8v1.6l-56.2,24.2
			h-5.4v14.3h9.9v-9.3h11.3v0.5h23.9v-0.5h12.2v2.1h2.7v2.6h-0.8v0.7h0.8v0.2h-0.8v0.7h0.8v12.3H175v2.2h2.3v2.2H175v2.2h-5.1v2.2
			h3.4v0.7h-1.1h-2.3v2.2h2.3V380h-2.3v2.2h2.3v0.7h-2.3v2.2h2.3v45.8h-5.2v3.5h-5.8v-4.2h-4.8v4.2h-7.1v-4.2h-2.6v4.2h-5.7v-4.2
			h-1.7v4.2h-22.5v3.9h-7.8v4.1h-0.5V461h-4.5v1h-16v-19.6h-3.8V462h-6.9v1.9h6.9V477H75v1.9h5.3v1.9h4v15.6h-2.2v-11h-0.6v11h-3.9
			v-11h-0.6v11H75v1.9h2.1v17.5H75v1.9h2.1v17.5H75v1.9h2.1v17.5H75v1.9h2.1v17.5H75v1.9h2.1v17.5H75v1.9h2.1v17.5H75v1.9h2.1v17.5
			H75v1.9h2.1v17.3c-0.9,0-1.7,0-2.6,0c-1.5-0.1-4.6-1.2-5.9-0.7c-3.9,1.3-1.5,1.9-1.6,4.4c-0.3,7.1-2,13.6-10.9,14.8l0.3,1.3
			c0.2,5.7,12.4,4.5,15.8,5.8c1.8,0.7,3.4,1.5,4.9,2.5V691H75v1.9h2.1v17.5H75v1.9h2.1v17.5H75v1.9h2.1v17.5H75v1.9h2.1v12.6
			L0,765.3v109.9h1400V711L1390.5,712.9z M330.8,748.8l0.1-0.9l5.4,0.4l-0.1,0.9L330.8,748.8z M336.2,749.6l-0.1,1.6l-5.4-0.4
			l0.1-1.6L336.2,749.6z M284.4,480.3h1.7v15.1h-1.7V480.3z M284.4,498.4h1.7v15.1h-1.7V498.4z M284.4,516.5h1.7v15.1h-1.7V516.5z
			 M284.4,534.6h1.7v15.1h-1.7V534.6z M284.4,552.7h1.7v15.1h-1.7V552.7z M284.4,570.8h1.7v15.1h-1.7V570.8z M286.1,588.9v11.6
			c-0.6-0.1-1.1-0.2-1.7-0.1v-11.5H286.1z M274.5,480.3h9.3v15.1h-9.3V480.3z M274.5,498.4h9.3v15.1h-9.3V498.4z M274.5,516.5h9.3
			v15.1h-9.3V516.5z M274.5,534.6h9.3v15.1h-9.3V534.6z M274.5,552.7h9.3v15.1h-9.3V552.7z M274.5,570.8h9.3v15.1h-9.3V570.8z
			 M274.5,588.9h9.3v11.5c-0.1,0-0.2,0-0.3,0c-3,0.6-4.6,2.3-6.3,3.5h-2.7V588.9z M271.6,480.3h1.2v15.1h-1.2V480.3z M271.6,498.4
			h1.2v15.1h-1.2V498.4z M271.6,516.5h1.2v15.1h-1.2V516.5z M271.6,534.6h1.2v15.1h-1.2V534.6z M271.6,552.7h1.2v15.1h-1.2V552.7z
			 M271.6,570.8h1.2v15.1h-1.2V570.8z M271.6,588.9h1.2v15.1h-1.2V588.9z M266.8,480.3h3.1v15.1h-3.1V480.3z M266.8,498.4h3.1v15.1
			h-3.1V498.4z M266.8,516.5h3.1v15.1h-3.1V516.5z M266.8,534.6h3.1v15.1h-3.1V534.6z M266.8,552.7h3.1v15.1h-3.1V552.7z
			 M266.8,570.8h3.1v15.1h-3.1V570.8z M269.9,588.9v15.1H268c-0.4-0.1-0.8-0.2-1.2-0.3v-14.8H269.9z M249.8,481h14.4v-0.7h2.1v15.1
			h-2.1v-2h-14.4V481z M249.8,499.1h14.4v-0.7h2.1v15.1h-2.1v-2h-14.4V499.1z M249.8,517.2h14.4v-0.7h2.1v15.1h-2.1v-2h-14.4V517.2z
			 M249.8,535.3h14.4v-0.7h2.1v15.1h-2.1v-2h-14.4V535.3z M249.8,553.4h14.4v-0.7h2.1v15.1h-2.1v-2h-14.4V553.4z M249.8,571.5h14.4
			v-0.7h2.1v15.1h-2.1v-2h-14.4V571.5z M249.8,589.6h14.4v-0.7h2.1v14.6c-0.7-0.1-1.4-0.3-2.1-0.4v-1.2h-14.4V589.6z M244.2,455.5
			h3.9v5.5h-3.9V455.5z M244.2,465.9h3.9v9.4h-0.6v-2h-3.3V465.9z M244.2,482.8h3.3V481h0.6v12.3h-0.6v-2h-3.3V482.8z M244.2,500.9
			h3.3v-1.8h0.6v12.3h-0.6v-2h-3.3V500.9z M244.2,519h3.3v-1.8h0.6v12.3h-0.6v-2h-3.3V519z M244.2,537.1h3.3v-1.8h0.6v12.3h-0.6v-2
			h-3.3V537.1z M244.2,555.2h3.3v-1.8h0.6v12.3h-0.6v-2h-3.3V555.2z M244.2,573.3h3.3v-1.8h0.6v12.3h-0.6v-2h-3.3V573.3z
			 M244.2,591.4h3.3v-1.8h0.6v12.3h-0.6v-2h-3.3V591.4z M234.1,456.8h6.4v4.2h-6.4V456.8z M234.1,465.9h6.4v7.3h-6.4V465.9z
			 M234.1,482.8h6.4v8.5h-6.4V482.8z M234.1,500.9h6.4v8.5h-6.4V500.9z M234.1,519h6.4v8.5h-6.4V519z M234.1,537.1h6.4v8.5h-6.4
			V537.1z M234.1,555.2h6.4v8.5h-6.4V555.2z M234.1,573.3h6.4v8.5h-6.4V573.3z M234.1,591.4h6.4v8.5h-6.4V591.4z M187.8,415.4v6.1
			h-4.3l-8.5-4l4.4-2.1H187.8z M183.9,413.2l3.8-1.8v1.8H183.9z M187.8,407.1v2.5l-5.3-2.5H187.8z M177.8,404.9l-2.9-1.4l10-4.7h2.8
			v6.1H177.8z M187.8,390.5v5.2l-11-5.2H187.8z M177.6,388.3l6.7-3.2h3.4v3.2H177.6z M187.8,430.9h-4.2v-3.6l4.2-2V430.9z
			 M181,430.9h-5.1l5.1-2.4V430.9z M187.8,380h-3.6l-9.2-4.4l12.9-6.1V380z M185.5,335.9v-1.3h1.7l-0.6,1.3H185.5z M186.8,335.9
			l0.6-1.3h0.2l0.6,1.3H186.8z M190.1,335.9h-1.6l-0.6-1.3h2.2V335.9z M195.3,338v-0.5v-1.6v-0.4l0.4-0.8h0.2l1.6,3.4H195.3z
			 M195.3,335v-0.3h0.2L195.3,335z M197.7,338l-1.6-3.4h3.4l-1.6,3.4H197.7z M198.2,338l1.6-3.4h0.2l1.6,3.4H198.2z M201.8,338
			l-1.6-3.4h3.4L202,338H201.8z M202.3,338l1.6-3.4h0.2l1.6,3.4H202.3z M205.9,338l-1.6-3.4h3.4l-1.6,3.4H205.9z M206.4,338l1.6-3.4
			h0.2l1.6,3.4H206.4z M210,338l-1.6-3.4h3.4l-1.6,3.4H210z M210.5,338l1.6-3.4h0.2l1.6,3.4H210.5z M214.2,338l-1.6-3.4h3.4
			l-1.6,3.4H214.2z M214.6,338l1.6-3.4h0.2l1.6,3.4H214.6z M218.3,338l-1.6-3.4h3.4l-1.6,3.4H218.3z M218.7,338l1.6-3.4h0.2l1.6,3.4
			H218.7z M222.4,338l-1.6-3.4h3.4l-1.6,3.4H222.4z M222.8,338l1.6-3.4h0.2l1.6,3.4H222.8z M226.5,338l-1.6-3.4h3.4l-1.6,3.4H226.5z
			 M226.9,338l1.6-3.4h0.2l1.6,3.4H226.9z M230.6,338l-1.6-3.4h3.4l-1.6,3.4H230.6z M231.1,338l1.6-3.4h0.2l1.6,3.4H231.1z
			 M234.7,338l-1.6-3.4h3.1v0.6l-1.3,2.8H234.7z M235.2,338l1.1-2.3v0.7h1.6l0.8,1.6H235.2z M238.8,338l-0.8-1.6h1.7L239,338H238.8z
			 M239.3,338l0.8-1.6h1.4v-1l1.3,2.6H239.3z M242.9,338l-1.5-3.2v-0.2h3.3l-1.6,3.4H242.9z M243.4,338l1.6-3.4h0.2l1.6,3.4H243.4z
			 M247,338l-1.6-3.4h3.4l-1.6,3.4H247z M247.5,338l1.6-3.4h0.2l1.6,3.4H247.5z M251.1,338l-1.6-3.4h3.4l-1.6,3.4H251.1z M251.6,338
			l1.6-3.4h0.2l1.6,3.4H251.6z M255.2,338l-1.6-3.4h3.4l-1.6,3.4H255.2z M255.7,338l1.6-3.4h0.2l1.6,3.4H255.7z M259.4,338l-1.6-3.4
			h3.4l-1.6,3.4H259.4z M259.8,338l1.6-3.4h0.2l1.6,3.4H259.8z M263.5,338l-1.6-3.4h3.4l-1.6,3.4H263.5z M263.9,338l1.6-3.4h0.2
			l1.6,3.4H263.9z M267.6,338l-1.6-3.4h3.4l-1.6,3.4H267.6z M268,338l1.6-3.4h0.2l1.6,3.4H268z M271.7,338l-1.6-3.4h3.4l-1.6,3.4
			H271.7z M272.2,338l1.6-3.4h0.2l1.6,3.4H272.2z M275.8,338l-1.6-3.4h3.4L276,338H275.8z M276.3,338l1.6-3.4h0.2l1.6,3.4H276.3z
			 M279.9,338l-1.6-3.4h3.4l-1.6,3.4H279.9z M280.4,338l1.6-3.4h0.2l1.6,3.4H280.4z M284,338l-1.6-3.4h3.4l-1.6,3.4H284z M284.5,338
			l1.6-3.4h0.2l1.6,3.4H284.5z M288.1,338l-1.6-3.4h3.4l-1.6,3.4H288.1z M288.6,338l1.6-3.4h0.2l1.6,3.4H288.6z M292.2,338l-1.6-3.4
			h3.4l-1.6,3.4H292.2z M292.7,338l1.6-3.4h0.2l1.6,3.4H292.7z M296.3,338l-1.6-3.4h3.4l-1.6,3.4H296.3z M296.8,338l1.6-3.4h0.2
			l1.6,3.4H296.8z M300.5,338l-1.6-3.4h3.4l-1.6,3.4H300.5z M300.9,338l1.6-3.4h0.2l1.6,3.4H300.9z M304.6,338l-1.6-3.4h3.4
			l-1.6,3.4H304.6z M305,338l1.6-3.4h0.2l1.6,3.4H305z M308.7,338l-1.6-3.4h3.4l-1.6,3.4H308.7z M309.1,338l1.6-3.4h0.2l1.6,3.4
			H309.1z M312.8,338l-1.6-3.4h3.4L313,338H312.8z M313.2,338l1.6-3.4h0.2l1.6,3.4H313.2z M316.9,338l-1.6-3.4h3.4l-1.6,3.4H316.9z
			 M317.4,338l1.6-3.4h0.2l1.6,3.4H317.4z M321,338l-1.6-3.4h3.4l-1.6,3.4H321z M321.5,338l1.6-3.4h0.2l1.6,3.4H321.5z M325.1,338
			l-1.6-3.4h3.4l-1.6,3.4H325.1z M325.6,338l1.6-3.4h0.2l1.6,3.4H325.6z M372.6,334.7l1.6,3.4h-3.4l1.6-3.4H372.6z M372.1,334.7
			l-1.6,3.4h-0.2l-1.6-3.4H372.1z M368.5,334.7l1.6,3.4h-3.4l1.6-3.4H368.5z M368,334.7l-1.6,3.4h-0.2l-1.6-3.4H368z M364.4,334.7
			l1.6,3.4h-3.4l1.6-3.4H364.4z M363.9,334.7l-1.6,3.4h-0.2l-1.6-3.4H363.9z M360.3,334.7l1.6,3.4h-3.4l1.6-3.4H360.3z M359.8,334.7
			l-1.6,3.4H358l-1.6-3.4H359.8z M356.2,334.7l1.6,3.4h-3.4l1.6-3.4H356.2z M355.7,334.7l-1.6,3.4h-0.2l-1.6-3.4H355.7z M352,334.7
			l1.6,3.4h-3.4l1.6-3.4H352z M351.6,334.7L350,338h-0.2l-1.6-3.4H351.6z M347.9,334.7l1.6,3.4h-3.4l1.6-3.4H347.9z M347.5,334.7
			l-1.6,3.4h-0.2l-1.6-3.4H347.5z M343.8,334.7l1.6,3.4H342l1.6-3.4H343.8z M343.4,334.7l-1.6,3.4h-0.2l-1.6-3.4H343.4z
			 M339.7,334.7l1.6,3.4h-3.4l1.6-3.4H339.7z M339.3,334.7l-1.6,3.4h-0.2l-1.6-3.4H339.3z M335.6,334.7l1.6,3.4h-3.4l1.6-3.4H335.6z
			 M335.1,334.7l-1.6,3.4h-0.2l-1.6-3.4H335.1z M331.5,334.7l1.6,3.4h-3.4l1.6-3.4H331.5z M329.4,338h-0.2l-1.6-3.4h3.4L329.4,338z
			 M329.5,334.1h-18.7l0.1-0.3l-104.6-20.2L329.5,334.1z M309,334.1h-67.6v-1.8h-5.2v0.6l-52-22.9L309,334.1z M182.4,310.5h0.5v-0.4
			l53.4,23.5v0.5h-41v-0.6h-5.2v0.6h-4.6v-2.9h-2.6v-19.3h-0.5V310.5z M183.4,340.7v2.6h-1.2l-3-1.4l2.4-1.1H183.4z M179.2,355.4
			l1.4-0.7h2.7v2H182L179.2,355.4z M181.4,356.7h-2.2v-1L181.4,356.7z M179.2,355.1v-0.4h0.9L179.2,355.1z M182.2,354l1.2-0.6v0.6
			H182.2z M181.6,354h-2.4v-2h1.9l2.3,1.1v0L181.6,354z M179.2,351.3v-0.2l0.4,0.2H179.2z M181.7,352h1.7v0.8L181.7,352z
			 M180.2,351.3l-0.9-0.4l3.3-1.5h0.9v2H180.2z M179.2,350.6v-1.3h2.7L179.2,350.6z M179.2,348.6v-2h0.1l4.1,2v0H179.2z
			 M181.7,344.9l-2.2,1h-0.3v-1H181.7z M179.2,343.2v-1.2l2.4,1.2H179.2z M179.8,346.6h3.6v1.7L179.8,346.6z M180.1,345.9l2.2-1h1.1
			v1H180.1z M179.2,341.6v-0.9h1.8L179.2,341.6z M128.3,338L128.3,338l1.6-3.4h0.2l1.6,3.4H128.3z M128.3,337.5v-2.8h1.3
			L128.3,337.5z M132,338l-1.6-3.4h3.4l-1.6,3.4H132z M132.4,338l1.6-3.4h0.2l1.6,3.4H132.4z M136.1,338l-1.6-3.4h3.4l-1.6,3.4
			H136.1z M139.6,338h-3.1l1.6-3.4h0.2l1.3,2.7V338z M139.6,336.9l-1-2.2h1V336.9z M139.6,333.5v0.6h-11.3v-0.6h-2.8l52-22.3
			l-36.4,22.3H139.6z M163.5,338v-2.3l1.1,2.3H163.5z M164.8,338l-1.2-2.5h2.6l-1.2,2.5H164.8z M165.3,338l1.2-2.5h1l1.2,2.5H165.3z
			 M168.9,338l-1.2-2.5h2.6l-1.2,2.5H168.9z M169.4,338l1.2-2.5h1l1.2,2.5H169.4z M173.1,338l-1.2-2.5h2.6l-1.2,2.5H173.1z
			 M175.7,338h-2.2l1.2-2.5h1V338z M155,329.9v3.6h-12.6l37.8-23.2v0.2h0.5v1.4h-0.5v19.3h-1.3v-1.3H155z M174.8,368.9h12.7l-12.7,6
			V368.9z M174.8,376.5l7.5,3.6h-7.5V376.5z M174.8,385.1h7.7l-6.7,3.2h-1V385.1z M174.8,390.5h0.2l12.7,6v0.1h-12.9V390.5z
			 M174.8,398.8h8.3l-8.3,3.9V398.8z M174.8,404.3l1.2,0.6h-1.2V404.3z M174.8,407.1h5.8l7.1,3.4v0.1l-5.6,2.6h-7.3V407.1z
			 M174.8,415.4h2.7l-2.7,1.3V415.4z M174.8,418.3l6.8,3.2h-6.8V418.3z M174.8,423.7h11.4l1.5,0.7v0.1l-4.2,2v-1.6H181v2.8l-6.1,2.9
			V423.7z M112.4,706.8c0.8,0.4,1.6,0.8,2.4,1.1v2.5h-2.4V706.8z M106.4,641c-0.7-0.3-1.3-0.6-2-0.8v-3.7h4.2v6.2
			C107.8,642,107,641.3,106.4,641z M108.6,519.8v15.6h-4.2v-15.6H108.6z M104.4,515.9v-15.6h4.2v15.6H104.4z M108.6,539.3v15.6h-4.2
			v-15.6H108.6z M108.6,558.7v15.6h-4.2v-15.6H108.6z M108.6,578.2v15.6h-4.2v-15.6H108.6z M108.6,597.6v15.6h-4.2v-15.6H108.6z
			 M108.6,617.1v15.6h-4.2v-15.6H108.6z M139.5,484.2v7.1h-3.2v2.6h-7.5v-2.6h-4.5v-5.8h-0.6v5.8h-4.1v2.6h-2.2v-11.2h18.8v1.5
			H139.5z M139.5,503.6v7.1h-3.2v2.6h-2.6v-2.6h-9.2v2.6h-0.1v-11.2h11.9v1.5H139.5z M136.2,521.5v1.5h3.2v7.1h-3.2v2.6h-7.5v-2.6
			h-4.5v-8.6H136.2z M136.2,541v1.5h3.2v7.1h-3.2v2.6h-7.5v-2.6h-4.5V541H136.2z M136.2,560.4v1.5h3.2v7.1h-3.2v2.6h-7.5h-4.5v-11.2
			H136.2z M136.2,579.9v1.5h3.2v7.1h-3.2v2.6h-7.5v-2.6h-4.5v-8.6H136.2z M136.2,599.3v1.5h3.2v7.1h-3.2v2.6h-7.5h-4.5v-11.2H136.2z
			 M136.2,618.8v1.5h3.2v7.1h-3.2v2.6h-4.7v-2.6h-7.2v-8.6H136.2z M123.7,502.1v11.2h-6.3v-11.2H123.7z M123.7,521.5v8.6h-4.1v2.6
			h-2.2v-11.2H123.7z M123.7,541v8.6h-4.1v2.6h-2.2V541H123.7z M123.7,560.4v11.2h-4.1h-2.2v-11.2H123.7z M123.7,579.9v8.6h-4.1v2.6
			h-2.2v-11.2H123.7z M123.7,599.3v11.2h-4.1h-2.2v-11.2H123.7z M123.7,618.8v8.6h-1.4v2.6h-5v-11.2H123.7z M118.6,638.2
			c-0.4,0.7-0.8,1.4-1.2,2.2v-2.2H118.6z M146.2,510.7H143v-7.1h3.2V510.7z M146.2,523.1v7.1H143v-7.1H146.2z M146.2,542.5v7.1H143
			v-7.1H146.2z M146.2,562v7.1H143V562H146.2z M146.2,581.4v7.1H143v-7.1H146.2z M146.2,600.9v7.1H143v-7.1H146.2z M146.2,620.3v7.1
			H143v-7.1H146.2z M161.9,456.8h5.2v4.2h-5.2V456.8z M161.9,465.9h5.2v6h-5.2V465.9z M161.9,484.2h5.2v7.1h-5.2V484.2z
			 M161.9,503.6h5.2v7.1h-5.2V503.6z M161.9,523.1h5.2v7.1h-5.2V523.1z M161.9,542.5h5.2v7.1h-5.2V542.5z M161.9,562h5.2v7.1h-5.2
			V562z M161.9,581.4h5.2v7.1h-5.2V581.4z M161.9,600.9h5.2v7.1h-5.2V600.9z M167.1,620.3v1.6c-1.8-0.4-3.6-0.7-5.2-0.5v-1.1H167.1z
			 M154.5,456.8h3.7v4.2h-3.7V456.8z M154.5,465.9h3.7v6h-3.7V465.9z M154.5,484.2h3.7v7.1h-3.7V484.2z M154.5,503.6h3.7v7.1h-3.7
			V503.6z M154.5,523.1h3.7v7.1h-3.7V523.1z M154.5,542.5h3.7v7.1h-3.7V542.5z M154.5,562h3.7v7.1h-3.7V562z M154.5,581.4h3.7v7.1
			h-3.7V581.4z M154.5,600.9h3.7v7.1h-3.7V600.9z M154.5,620.3h3.7v4.5c-0.2,0.9-0.4,1.8-0.8,2.6h-2.8V620.3z M150,456.8h2.8v4.2
			H150V456.8z M150,465.9h2.8v6H150V465.9z M150,484.2h2.8v7.1H150V484.2z M150,503.6h2.8v7.1H150V503.6z M150,523.1h2.8v7.1H150
			V523.1z M150,542.5h2.8v7.1H150V542.5z M150,562h2.8v7.1H150V562z M150,581.4h2.8v7.1H150V581.4z M150,600.9h2.8v7.1H150V600.9z
			 M150,620.3h2.8v7.1H150V620.3z M141.2,456.8h5.1v4.2h-5.1V456.8z M141.2,465.9h5.1v6h-5.1V465.9z M141.2,484.2h5.1v7.1H143v-5.8
			h-0.6v5.8h-1.3V484.2z M141.2,503.6h1.3v7.1h-1.3V503.6z M141.2,523.1h1.3v7.1h-1.3V523.1z M141.2,542.5h1.3v7.1h-1.3V542.5z
			 M141.2,562h1.3v7.1h-1.3V562z M141.2,581.4h1.3v7.1h-1.3V581.4z M141.2,600.9h1.3v7.1h-1.3V600.9z M141.2,620.3h1.3v7.1h-1.3
			V620.3z M112.4,453.4h4.5v3.5h22.5v4.2h-27.1V453.4z M112.4,465.9h27.1v6h-3.2v2.6h-7.5v-2.6h-9.2v2.6h-4.8v2.6h-2.4V465.9z
			 M112.4,480.9h2.4v1.7h1.2v11.2h-1.2v2.6h-2.4V480.9z M112.4,500.4h2.4v1.7h1.2v11.2h-1.2v2.6h-2.4V500.4z M112.4,519.8h2.4v1.7
			h1.2v11.2h-1.2v2.6h-2.4V519.8z M112.4,539.3h2.4v1.7h1.2v11.2h-1.2v2.6h-2.4V539.3z M112.4,558.7h2.4v1.7h1.2v11.2h-1.2v2.6h-2.4
			V558.7z M112.4,578.2h2.4v1.7h1.2v11.2h-1.2v2.6h-2.4V578.2z M112.4,597.6h2.4v1.7h1.2v11.2h-1.2v2.6h-2.4V597.6z M112.4,617.1
			h2.4v1.7h1.2V630h-1.2v2.6h-2.4V617.1z M114.8,636.5v1.7h1.2v4.9c-0.6,1-1.4,1.7-2.5,2c-0.3,0.1-0.7,0.1-1.1,0v-8.6H114.8z
			 M88.1,463.9h16v1.9h4.5V477H88.1V463.9z M88.1,480.9h20.6v15.6h-4.2v-11h-0.6v11H88.1V480.9z M88.1,500.4h15.8v15.6H88.1V500.4z
			 M88.1,519.8h15.8v15.6H88.1V519.8z M88.1,539.3h15.8v15.6H88.1V539.3z M88.1,558.7h15.8v15.6H88.1V558.7z M88.1,578.2h15.8v15.6
			H88.1V578.2z M88.1,597.6h15.8v15.6H88.1V597.6z M88.1,617.1h15.8v15.6H88.1V617.1z M103.8,636.5v3.5c-1.8-0.5-3.7-0.6-5.7-0.7
			c-2.2,4.9-5.7,8.2-10.1,10.2v-13H103.8z M88.1,689.4c0.6,0.5,1.1,1,1.7,1.6h-1.7V689.4z M82.1,500.4h2.2v15.6h-2.2V500.4z
			 M82.1,519.8h2.2v15.6h-2.2V519.8z M82.1,539.3h2.2v15.6h-2.2V539.3z M82.1,558.7h2.2v15.6h-2.2V558.7z M82.1,578.2h2.2v15.6h-2.2
			V578.2z M82.1,597.6h2.2v15.6h-2.2V597.6z M82.1,617.1h2.2v15.6h-2.2V617.1z M84.3,636.5v14.3c-0.7,0.2-1.4,0.4-2.2,0.5v-14.8
			H84.3z M77.7,498.4h2.6v1.9h1.3v15.6h-3.9V498.4z M77.7,517.9h2.6v1.9h1.3v15.6h-3.9V517.9z M77.7,537.3h2.6v1.9h1.3v15.6h-3.9
			V537.3z M77.7,556.8h2.6v1.9h1.3v15.6h-3.9V556.8z M77.7,576.2h2.6v1.9h1.3v15.6h-3.9V576.2z M77.7,595.7h2.6v1.9h1.3v15.6h-3.9
			V595.7z M77.7,615.1h2.6v1.9h1.3v15.6h-3.9V615.1z M77.7,634.6h2.6v1.9h1.3v14.9c-1.3,0.2-2.6,0.3-3.9,0.4V634.6z M81.6,763.8
			l-3.9,0.1v-12.6h2.6v1.9h1.3V763.8z M81.6,749.3h-3.9v-17.5h2.6v1.9h1.3V749.3z M81.6,729.9h-3.9v-17.5h2.6v1.9h1.3V729.9z
			 M81.6,710.4h-3.9v-17.5h2.6v1.9h1.3V710.4z M77.7,691v-10.8c1.4,0.9,2.6,1.9,3.9,3v7.7H77.7z M84.3,763.8l-2.2,0v-10.6h2.2V763.8
			z M84.3,749.3h-2.2v-15.6h2.2V749.3z M84.3,729.9h-2.2v-15.6h2.2V729.9z M84.3,710.4h-2.2v-15.6h2.2V710.4z M82.1,691v-7.2
			c0.7,0.7,1.5,1.3,2.2,2v5.2H82.1z M103.8,763.4l-15.8,0.3v-10.5h15.8V763.4z M103.8,749.3H88.1v-15.6h15.8V749.3z M103.8,729.9
			H88.1v-15.6h15.8V729.9z M88.1,710.4v-15.6h6.3c3.1,2.5,6.3,4.9,9.5,7v8.6H88.1z M108.6,763.3l-4.2,0.1v-10.2h4.2V763.3z
			 M108.6,749.3h-4.2v-15.6h4.2V749.3z M108.6,729.9h-4.2v-15.6h4.2V729.9z M104.4,710.4v-8.2c1.4,0.9,2.8,1.8,4.2,2.6v5.6H104.4z
			 M116,763.2l-3.6,0.1v-10.1h2.4v1.7h1.2V763.2z M116,746.7h-1.2v2.6h-2.4v-15.6h2.4v1.7h1.2V746.7z M116,727.3h-1.2v2.6h-2.4
			v-15.6h2.4v1.7h1.2V727.3z M123.7,763l-6.3,0.1v-8.2h6.3V763z M123.7,744.1h-4.1v2.6h-2.2v-11.2h6.3V744.1z M123.7,727.3h-4.1
			h-2.2V716h6.3V727.3z M139.5,762.8l-15.2,0.3v-8.1h11.9v1.5h3.2V762.8z M139.5,744.1h-3.2v2.6h-7.5v-2.6h-4.5v-8.6h11.9v1.5h3.2
			V744.1z M139.5,724.7h-3.2v2.6h-7.5h-4.5V716h11.9v1.5h3.2V724.7z M142.5,762.7l-1.3,0v-6.3h1.3V762.7z M142.5,744.1h-1.3V737h1.3
			V744.1z M142.5,724.7h-1.3v-7.1h1.3V724.7z M146.2,762.6l-3.2,0.1v-6.3h3.2V762.6z M146.2,744.1H143V737h3.2V744.1z M146.2,724.7
			H143v-7.1h3.2V724.7z M152.8,759.7l-2.8,2.8v-6h2.8V759.7z M152.8,744.1H150V737h2.8V744.1z M152.8,724.7H150v-7.1h2.8V724.7z
			 M154.5,758v-1.5h1.5L154.5,758z M158.1,744.1h-3.7V737h3.7V744.1z M158.1,724.7h-3.7v-7.1h3.7V724.7z M167.1,744.1h-5.2V737h5.2
			V744.1z M161.9,724.7v-7.1h0.8c1.5,0.3,2.9,0.5,4.4,0.8v6.3H161.9z M263.6,745.9h-13.8v-9.5c4.4,0.5,8.8,1,13.2,1.4
			c1.1,0.1,2.1,0.1,3.2,0.1v8.4C264.5,746,263.6,745.9,263.6,745.9z M266.8,746.3v-8.5c1,0,2.1-0.1,3.1-0.2v9.1
			C268.7,746.6,267.7,746.5,266.8,746.3z M271.6,747v-9.5c0.4,0,0.8-0.1,1.2-0.1v9.8C272.4,747.1,272,747.1,271.6,747z M283.6,748.7
			c-3.4-0.5-6.4-0.9-9.1-1.3v-10.3c2.4-0.3,4.8-0.7,7.3-0.9c0.7-0.1,1.4-0.1,2-0.2v12.7H283.6z M284.4,748.7V736
			c0.6,0,1.1-0.1,1.7-0.1v12.9H284.4z M304.6,751.6c-3.5-0.5-6.9-1-10.1-1.4h0.8v-1.5h-7.4V736c0.9,0.6,1.9,1.1,2.8,1.7
			c3.8,2.1,7.3,3.6,11.2,4.6c0,0.1,0,0.3,0,0.4l-1.4,0.1l0.3,2.8l1.4-0.1c0.1,0.6,0.3,1.2,0.5,1.8l-1.3,0.6l1.2,2.5l1.3-0.6
			c0.3,0.5,0.7,1,1.1,1.5L304.6,751.6z M347.9,757.5c-6.7-0.9-14.9-2-23.5-3.1l0.7-0.5l-0.8-1.2c0.5-0.4,0.9-0.9,1.3-1.3l1.2,0.8
			l1.6-2.3l-1.2-0.8c0.3-0.5,0.5-1.1,0.8-1.7c0,0.1-0.1,0.3-0.1,0.4l2.6,0.2l-0.1,0.9l0,0.4l-0.1,1.6l0,0.4l0.6,0l5.4,0.4l0.6,0
			l0-0.4l0.1-1.6l0-0.4l0.1-0.9l1.2,0.1c2.6,0.5,5.1,0.9,7.7,1.4c0,0.1,0,0.2,0,0.3l-1,0.1l0.2,1.9l1-0.1c0.1,0.4,0.2,0.8,0.3,1.2
			l-0.9,0.4l0.8,1.8l0.9-0.4c0.2,0.4,0.5,0.7,0.7,1l-0.7,0.7L347.9,757.5z M349.2,757.7l0.1-0.1c0.1,0.1,0.2,0.1,0.3,0.2
			C349.4,757.7,349.3,757.7,349.2,757.7z M358.6,758.8c0.4-0.2,0.7-0.3,1.1-0.5l0.5,0.7C359.6,758.9,359.1,758.9,358.6,758.8z
			 M364,759.3c-0.4,0-1.7-0.1-3.7-0.3l1.5-1.1l-0.6-0.8c0.3-0.3,0.6-0.6,0.9-0.9l0.8,0.6l1.1-1.6l-0.8-0.6c0.2-0.3,0.3-0.7,0.5-1.1
			c1.7,0.4,3.4,0.9,5.1,1.5c3.4,1.1,6.6,2.8,9.8,4.3C370.3,759.2,364.8,759.2,364,759.3z M1345.6,665.6v5.7c-0.9,0-1.6-0.9-1.9-2.7
			c-0.1-0.9,0-2,0.3-3H1345.6z M1346.4,373.9h1.9V371h4v26.2h-5.8V373.9z M1346.4,403.1h1.9v-2.9h4v26.2h-5.8V403.1z M1346.4,432.3
			h1.9v-2.9h4v26.2h-5.8V432.3z M1346.4,461.4h1.9v-2.9h4v26.2h-5.8V461.4z M1346.4,490.6h1.9v-2.9h4v26.2h-5.8V490.6z
			 M1346.4,519.7h1.9v-2.9h4v26.2h-5.8V519.7z M1346.4,548.9h1.9V546h4v26.2h-5.8V548.9z M1346.4,578.1h1.9v-2.9h4v26.2h-5.8V578.1z
			 M1346.4,607.2h1.9v-2.9h4v26.2h-5.8V607.2z M1346.4,636.4h1.9v-2.9h4v26.2h-5.8V636.4z M1348.3,665.6v-2.9h4v9.4
			c-1.5-1.2-2.9-2.4-4.3-3.3c-0.5,1.1-1,1.9-1.6,2.2v-5.4H1348.3z M1342.3,373.9h3.3v23.3h-3.3V373.9z M1342.3,403.1h3.3v23.3h-3.3
			V403.1z M1342.3,432.3h3.3v23.3h-3.3V432.3z M1342.3,461.4h3.3v23.3h-3.3V461.4z M1342.3,490.6h3.3v23.3h-3.3V490.6z
			 M1342.3,519.7h3.3v23.3h-3.3V519.7z M1342.3,548.9h3.3v23.3h-3.3V548.9z M1342.3,578.1h3.3v23.3h-3.3V578.1z M1342.3,607.2h3.3
			v23.3h-3.3V607.2z M1345.6,636.4v23.3h-1.6c-0.4-0.6-1-1.1-1.7-1.4v-21.9H1345.6z M1336.6,397.3H1313v-23.3h23.6V397.3z
			 M1336.6,403.1v23.3H1313v-23.3H1336.6z M1336.6,432.3v23.3H1313v-23.3H1336.6z M1336.6,461.4v23.3H1313v-23.3H1336.6z
			 M1336.6,490.6v23.3H1313v-23.3H1336.6z M1336.6,519.7v23.3H1313v-23.3H1336.6z M1336.6,548.9v23.3H1313v-23.3H1336.6z
			 M1336.6,578.1v23.3H1313v-23.3H1336.6z M1336.6,607.2v23.3H1313v-23.3H1336.6z M1336.6,636.4v20.2c-3.4-1.2-6.7-2.5-10.1-3.8
			c-3.9-1.5-8.1-6-12.3-5.2c-0.4,0.1-0.8,0.2-1.2,0.4v-11.6H1336.6z M1305.8,322.2h6.8v-2.9h24.1v19.7h-30.8V322.2z M1305.8,344.8
			h30.8v23.3H1313v-16.5h-0.9v16.5h-6.3V344.8z M1305.8,373.9h6.3v23.3h-6.3V373.9z M1305.8,403.1h6.3v23.3h-6.3V403.1z
			 M1305.8,432.3h6.3v23.3h-6.3V432.3z M1305.8,461.4h6.3v23.3h-6.3V461.4z M1305.8,490.6h6.3v23.3h-6.3V490.6z M1305.8,519.7h6.3
			v23.3h-6.3V519.7z M1305.8,548.9h6.3v23.3h-6.3V548.9z M1305.8,578.1h6.3v23.3h-6.3V578.1z M1305.8,607.2h6.3v23.3h-6.3V607.2z
			 M1312.2,636.4v12c-2.5,1.3-3.7,3.3-6.3,3.4v-15.4H1312.2z M1206.5,255.6h-10.2l10.2-4.8V255.6z M1202.5,246.5h4v1.9L1202.5,246.5
			z M1206.5,230.8h-1.8l1.8-0.8V230.8z M1194.1,221.6h12.5v5.9L1194.1,221.6z M1206.5,201.1v4.7h-1.5l-10-4.7H1206.5z M1195.3,193.5
			l11.3-5.3v5.3H1195.3z M1197.4,269.8v-3.6l7.6,3.6H1197.4z M1257.1,408v10.7h-1.9V408H1257.1z M1255.1,389.5v-10.7h1.9v10.7
			H1255.1z M1257.1,437.1v10.7h-1.9v-10.7H1257.1z M1257.1,466.3V477h-1.9v-10.7H1257.1z M1257.1,495.4v10.7h-1.9v-10.7H1257.1z
			 M1257.1,524.6v10.7h-1.9v-10.7H1257.1z M1257.1,553.8v10.7h-1.9v-10.7H1257.1z M1257.1,582.9v10.7h-1.9v-10.7H1257.1z
			 M1257.1,612.1v10.7h-1.9v-10.7H1257.1z M1257.1,641.3V652h-1.9v-10.7H1257.1z M1300.2,368.1h-3.6v-3.9h-1.8v-16.8h1.8v-2.6h3.6
			V368.1z M1296.5,376.5v-2.6h3.6v23.3h-3.6v-3.9h-1.8v-16.8H1296.5z M1296.5,405.7v-2.6h3.6v23.3h-3.6v-3.9h-1.8v-16.8H1296.5z
			 M1296.5,434.9v-2.6h3.6v23.3h-3.6v-3.9h-1.8v-16.8H1296.5z M1296.5,464v-2.6h3.6v23.3h-3.6v-3.9h-1.8V464H1296.5z M1296.5,493.2
			v-2.6h3.6v23.3h-3.6V510h-1.8v-16.8H1296.5z M1296.5,522.3v-2.6h3.6v23.3h-3.6v-3.9h-1.8v-16.8H1296.5z M1296.5,551.5v-2.6h3.6
			v23.3h-3.6v-3.9h-1.8v-16.8H1296.5z M1296.5,580.7v-2.6h3.6v23.3h-3.6v-3.9h-1.8v-16.8H1296.5z M1296.5,609.8v-2.6h3.6v23.3h-3.6
			v-3.9h-1.8v-16.8H1296.5z M1296.5,639v-2.6h3.6v13.9c-1.5-0.3-2.9-0.6-4.6-0.7c-0.3,0-0.6,0-0.8,0V639H1296.5z M1292.7,393.4h-9.5
			v-16.8h9.5V393.4z M1292.7,405.7v16.8h-3.3v-3.9h-6.2v-13H1292.7z M1292.7,434.9v16.8h-3.3v-3.9h-6.2v-13H1292.7z M1292.7,464
			v16.8h-3.3h-6.2V464H1292.7z M1292.7,493.2V510h-3.3v-3.9h-6.2v-13H1292.7z M1292.7,522.3v16.8h-3.3h-6.2v-16.8H1292.7z
			 M1292.7,551.5v16.8h-7.4v-3.9h-2v-13H1292.7z M1292.7,580.7v16.8h-3.3v-3.9h-6.2v-13H1292.7z M1292.7,609.8v16.8h-3.3v-3.9h-6.2
			v-13H1292.7z M1292.7,639v10.6c-2.4,0.2-4.5,1-7.1,1.1c-0.9,0-1.7-0.1-2.4-0.3V639H1292.7z M1259.6,308.6h33.8v-5.2h6.8v11.4
			h-40.6V308.6z M1259.6,322.2h40.6v16.8h-3.6V335h-7.2v-3.9h-13.7v3.9h-11.2v-3.9h-4.9V322.2z M1259.6,349.6h4.9v-2.3h28.2v16.8
			h-3.3v-3.9h-6.2v-8.7h-0.9v8.7h-6.7v3.9h-11.2v-3.9h-4.9V349.6z M1259.6,378.8h4.9v-2.3h17.9v16.8h-0.2v-3.9h-13.7v3.9h-4v-3.9
			h-4.9V378.8z M1259.6,408h4.9v-2.3h17.9v13h-6.7v3.9h-11.2v-3.9h-4.9V408z M1259.6,437.1h4.9v-2.3h17.9v13h-6.7v3.9h-11.2v-3.9
			h-4.9V437.1z M1259.6,466.3h4.9V464h17.9v16.8h-6.7h-11.2V477h-4.9V466.3z M1259.6,495.4h4.9v-2.3h17.9v13h-6.7v3.9h-11.2v-3.9
			h-4.9V495.4z M1259.6,524.6h4.9v-2.3h17.9v16.8h-6.7h-11.2v-3.9h-4.9V524.6z M1259.6,553.8h4.9v-2.3h17.9v13h-10.8v3.9h-7v-3.9
			h-4.9V553.8z M1259.6,582.9h4.9v-2.3h17.9v13h-6.7v3.9h-11.2v-3.9h-4.9V582.9z M1259.6,612.1h4.9v-2.3h17.9v13h-6.7v3.9h-11.2
			v-3.9h-4.9V612.1z M1259.6,641.3h4.9V639h17.9v11.1c-1.1-0.5-2.1-1.1-3.3-1.6c-4.9-1.8-7.1,1.6-10.5,3.5h-2.3v0.9
			c-0.1,0-0.3,0.1-0.4,0.1c-0.4,0.1-0.8,0.1-1.3,0v-1h-4.9V641.3z M1249.4,308.6h7.6v6.2h-7.6V308.6z M1249.4,322.2h7.6v9h-7.6
			V322.2z M1249.4,349.6h7.6v10.7h-1.9v-8.7h-0.9v8.7h-4.8V349.6z M1249.4,378.8h4.8v10.7h-4.8V378.8z M1249.4,408h4.8v10.7h-4.8
			V408z M1249.4,437.1h4.8v10.7h-4.8V437.1z M1249.4,466.3h4.8V477h-4.8V466.3z M1249.4,495.4h4.8v10.7h-4.8V495.4z M1249.4,524.6
			h4.8v10.7h-4.8V524.6z M1249.4,553.8h4.8v10.7h-4.8V553.8z M1249.4,582.9h4.8v10.7h-4.8V582.9z M1249.4,612.1h4.8v10.7h-4.8V612.1
			z M1249.4,641.3h4.8V652h-4.8V641.3z M1239.7,308.6h4.1v6.2h-4.1V308.6z M1239.7,322.2h4.1v9h-4.1V322.2z M1239.7,349.6h4.1v10.7
			h-4.1V349.6z M1239.7,378.8h4.1v10.7h-4.1V378.8z M1239.7,408h4.1v10.7h-4.1V408z M1239.7,437.1h4.1v10.7h-4.1V437.1z
			 M1239.7,466.3h4.1V477h-4.1V466.3z M1239.7,495.4h4.1v10.7h-4.1V495.4z M1239.7,524.6h4.1v10.7h-4.1V524.6z M1239.7,553.8h4.1
			v10.7h-4.1V553.8z M1239.7,582.9h4.1v10.7h-4.1V582.9z M1239.7,612.1h4.1v10.7h-4.1V612.1z M1239.7,641.3h4.1V652h-4.1V641.3z
			 M1231.6,308.6h5.5v6.2h-5.5V308.6z M1231.6,322.2h5.5v9h-5.5V322.2z M1231.6,349.6h5.5v10.7h-5.5V349.6z M1231.6,378.8h5.5v10.7
			h-5.5V378.8z M1231.6,408h5.5v10.7h-5.5V408z M1231.6,437.1h5.5v10.7h-5.5V437.1z M1231.6,466.3h5.5V477h-5.5V466.3z
			 M1231.6,495.4h5.5v10.7h-5.5V495.4z M1231.6,524.6h5.5v10.7h-5.5V524.6z M1231.6,553.8h5.5v10.7h-5.5V553.8z M1231.6,582.9h5.5
			v10.7h-5.5V582.9z M1231.6,612.1h5.5v10.7h-5.5V612.1z M1231.6,641.3h5.5V652h-5.5V641.3z M1218.2,308.6h7.8v6.2h-7.8V308.6z
			 M1218.2,322.2h7.8v9h-7.8V322.2z M1218.2,349.6h7.8v10.7h-7.8V349.6z M1218.2,378.8h7.8v10.7h-7.8V378.8z M1218.2,408h7.8v10.7
			h-7.8V408z M1218.2,437.1h7.8v10.7h-7.8V437.1z M1218.2,466.3h7.8V477h-7.8V466.3z M1218.2,495.4h7.8v10.7h-7.8V495.4z
			 M1218.2,524.6h7.8v10.7h-7.8V524.6z M1218.2,553.8h7.8v10.7h-7.8V553.8z M1218.2,582.9h7.8v10.7h-7.8V582.9z M1218.2,612.1h7.8
			v10.7h-7.8V612.1z M1218.2,641.3h7.8V652h-7.8V641.3z M1205.3,130.5v-3.8h1.4l1.8,3.8H1205.3z M1208.9,130.5l-1.8-3.8h3.9
			l-1.8,3.8H1208.9z M1209.6,130.5l1.8-3.8h1.5l1.8,3.8H1209.6z M1215.1,130.5l-1.8-3.8h3.9l-1.8,3.8H1215.1z M1215.8,130.5l1.8-3.8
			h1.5l1.8,3.8H1215.8z M1221.2,130.5l-1.8-3.8h3.9l-1.8,3.8H1221.2z M1223.6,130.5h-1.7l1.7-3.5V130.5z M1259.4,130.5v-1l1.9-4.1
			h0.3l2.4,5.1H1259.4z M1259.4,128.7v-3.3h1.6L1259.4,128.7z M1264.4,130.5l-2.4-5.1h5.1l-2.4,5.1H1264.4z M1265.1,130.5l2.4-5.1
			h0.3l2.4,5.1H1265.1z M1270.5,130.5l-2.4-5.1h5.1l-2.4,5.1H1270.5z M1276.3,130.5h-5.1l2.4-5.1h0.3L1276.3,130.5L1276.3,130.5z
			 M1276.3,129.7l-2-4.2h2V129.7z M1280.5,123.7h-4.2v0.9h-16.9v-0.9h-2.3l-54.6-33.5L1280.5,123.7z M1197.9,89.2h0.7V89l56.6,34.7
			h-18.9v-5.4h-35.8v1.9h-2V91.3h-0.7V89.2z M1200,134.5v1.3l-2.8-1.3H1200z M1197.8,155.5l2.1,1l-4.1,2h-2.1v-3H1197.8z
			 M1193.7,154.5v-0.9l1.9,0.9H1193.7z M1200,156.9v1.6h-3.3L1200,156.9z M1198.7,155.5h1.3v0.6L1198.7,155.5z M1196.5,154.5
			l-2.7-1.3v0l3.5-1.6h2.8v3H1196.5z M1196.3,151.5l-2.6,1.2v-1.2H1196.3z M1193.7,150.4v-3h1.4l4.9,2.3l-1.4,0.7H1193.7z
			 M1199.4,150.4l0.6-0.3v0.3H1199.4z M1196,147.4h4v1.9L1196,147.4z M1193.7,146.4L1193.7,146.4l6.2-3h0.1v3H1193.7z M1199.1,143.4
			l-5.3,2.5v-2.5H1199.1z M1193.7,142.3v-1.5h1.7l3.3,1.5H1193.7z M1199.5,142.3l-3.3-1.5h3.7v1.5H1199.5z M1196.4,138.3l3.7-1.7
			v1.7H1196.4z M1200,136.2l-4.5,2.1h-1.8v-3.8h2.7L1200,136.2z M1106.7,121.9v2.7h-101.4l187.1-36.1l-77.9,34.3v-0.8H1106.7z
			 M1159.5,93.8l-156.8,30.3l0.1,0.5h-28.1L1159.5,93.8z M907.6,130.5l2.4-5.1h0.3l2.4,5.1H907.6z M913.1,130.5l-2.4-5.1h5.1
			l-2.4,5.1H913.1z M913.8,130.5l2.4-5.1h0.3l2.4,5.1H913.8z M919.3,130.5l-2.4-5.1h5.1l-2.4,5.1H919.3z M920,130.5l2.4-5.1h0.3
			l2.4,5.1H920z M925.4,130.5l-2.4-5.1h5.1l-2.4,5.1H925.4z M926.1,130.5l2.4-5.1h0.3l2.4,5.1H926.1z M931.6,130.5l-2.4-5.1h5.1
			l-2.4,5.1H931.6z M932.3,130.5l2.4-5.1h0.3l2.4,5.1H932.3z M937.7,130.5l-2.4-5.1h5.1l-2.4,5.1H937.7z M938.5,130.5l2.4-5.1h0.3
			l2.4,5.1H938.5z M943.9,130.5l-2.4-5.1h5.1l-2.4,5.1H943.9z M944.6,130.5l2.4-5.1h0.3l2.4,5.1H944.6z M950.1,130.5l-2.4-5.1h5.1
			l-2.4,5.1H950.1z M950.8,130.5l2.4-5.1h0.3l2.4,5.1H950.8z M956.2,130.5l-2.4-5.1h5.1l-2.4,5.1H956.2z M956.9,130.5l2.4-5.1h0.3
			l2.4,5.1H956.9z M962.4,130.5l-2.4-5.1h5.1l-2.4,5.1H962.4z M963.1,130.5l2.4-5.1h0.3l2.4,5.1H963.1z M968.6,130.5l-2.4-5.1h5.1
			l-2.4,5.1H968.6z M969.3,130.5l2.4-5.1h0.3l2.4,5.1H969.3z M974.7,130.5l-2.4-5.1h5.1l-2.4,5.1H974.7z M975.4,130.5l2.4-5.1h0.3
			l2.4,5.1H975.4z M980.9,130.5l-2.4-5.1h5.1l-2.4,5.1H980.9z M981.6,130.5l2.4-5.1h0.3l2.4,5.1H981.6z M987,130.5l-2.4-5.1h5.1
			l-2.4,5.1H987z M987.7,130.5l2.4-5.1h0.3l2.4,5.1H987.7z M993.2,130.5l-2.4-5.1h5.1l-2.4,5.1H993.2z M993.9,130.5l2.4-5.1h0.3
			l2.4,5.1H993.9z M999.4,130.5l-2.4-5.1h5.1l-2.4,5.1H999.4z M1000.1,130.5l2.4-5.1h0.3l2.4,5.1H1000.1z M1005.5,130.5l-2.4-5.1
			h5.1l-2.4,5.1H1005.5z M1006.2,130.5l2.4-5.1h0.3l2.4,5.1H1006.2z M1011.7,130.5l-2.4-5.1h5.1l-2.4,5.1H1011.7z M1012.4,130.5
			l2.4-5.1h0.3l2.4,5.1H1012.4z M1017.9,130.5l-2.4-5.1h5.1l-2.4,5.1H1017.9z M1018.6,130.5l2.4-5.1h0.3l2.4,5.1H1018.6z
			 M1024,130.5l-2.4-5.1h5.1l-2.4,5.1H1024z M1024.7,130.5l2.4-5.1h0.3l2.4,5.1H1024.7z M1030.2,130.5l-2.4-5.1h5.1l-2.4,5.1H1030.2
			z M1030.9,130.5l2.4-5.1h0.3l2.4,5.1H1030.9z M1036.3,130.5l-2.4-5.1h5.1l-2.4,5.1H1036.3z M1037,130.5l2.4-5.1h0.3l2.4,5.1H1037z
			 M1042.5,130.5l-2.4-5.1h5.1l-2.4,5.1H1042.5z M1043.2,130.5l2.4-5.1h0.3l2.4,5.1H1043.2z M1048.7,130.5l-2.4-5.1h5.1l-2.4,5.1
			H1048.7z M1049.4,130.5l2.4-5.1h0.3l2.4,5.1H1049.4z M1054.8,130.5l-2.4-5.1h5.1l-2.4,5.1H1054.8z M1055.5,130.5l2.4-5.1h0.3
			l2.4,5.1H1055.5z M1061,130.5l-2.4-5.1h5.1l-2.4,5.1H1061z M1061.7,130.5l2.4-5.1h0.3l2.4,5.1H1061.7z M1067.2,130.5l-2.4-5.1h5.1
			l-2.4,5.1H1067.2z M1067.9,130.5l2.4-5.1h0.3l2.4,5.1H1067.9z M1073.3,130.5l-2.4-5.1h5.1l-2.4,5.1H1073.3z M1074,130.5l2.4-5.1
			h0.3l2.4,5.1H1074z M1079.5,130.5l-2.4-5.1h5.1l-2.4,5.1H1079.5z M1080.2,130.5l2.4-5.1h0.3l2.4,5.1H1080.2z M1085.6,130.5
			l-2.4-5.1h5.1l-2.4,5.1H1085.6z M1086.3,130.5l2.4-5.1h0.3l2.4,5.1H1086.3z M1091.8,130.5l-2.4-5.1h5.1l-2.4,5.1H1091.8z
			 M1092.5,130.5l2.4-5.1h0.3l2.4,5.1H1092.5z M1098,130.5l-2.4-5.1h5.1l-2.4,5.1H1098z M1098.7,130.5l2.4-5.1h0.3l2.4,5.1H1098.7z
			 M1104.1,130.5l-2.4-5.1h5v0.3l-2.2,4.7H1104.1z M1104.8,130.5l1.9-4v1.6h2.1l1.1,2.4H1104.8z M1110.3,130.5l-1.1-2.4h2.6
			l-1.1,2.4H1110.3z M1111,130.5l1.1-2.4h2.3v-1l1.6,3.4H1111z M1116.5,130.5l-2-4.2v-0.8h4.7l-2.4,5.1H1116.5z M1117.2,130.5
			l2.4-5.1h0.3l2.4,5.1H1117.2z M1122.6,130.5l-2.4-5.1h5.1l-2.4,5.1H1122.6z M1123.3,130.5l2.4-5.1h0.3l2.4,5.1H1123.3z
			 M1128.8,130.5l-2.4-5.1h5.1l-2.4,5.1H1128.8z M1129.5,130.5l2.4-5.1h0.3l2.4,5.1H1129.5z M1134.9,130.5l-2.4-5.1h5.1l-2.4,5.1
			H1134.9z M1135.6,130.5l2.4-5.1h0.3l2.4,5.1H1135.6z M1141.1,130.5l-2.4-5.1h5.1l-2.4,5.1H1141.1z M1141.8,130.5l2.4-5.1h0.3
			l2.4,5.1H1141.8z M1147.3,130.5l-2.4-5.1h5.1l-2.4,5.1H1147.3z M1148,130.5l2.4-5.1h0.3l2.4,5.1H1148z M1153.4,130.5l-2.4-5.1h5.1
			l-2.4,5.1H1153.4z M1154.1,130.5l2.4-5.1h0.3l2.4,5.1H1154.1z M1159.6,130.5l-2.4-5.1h5.1l-2.4,5.1H1159.6z M1160.3,130.5l2.4-5.1
			h0.3l2.4,5.1H1160.3z M1165.8,130.5l-2.4-5.1h5.1l-2.4,5.1H1165.8z M1166.5,130.5l2.4-5.1h0.3l2.4,5.1H1166.5z M1171.9,130.5
			l-2.4-5.1h5.1l-2.4,5.1H1171.9z M1175.9,127.4v2.4v0.7h-3.3l2.4-5.1h0.3l0.6,1.3V127.4z M1175.9,125.9l-0.2-0.5h0.2V125.9z
			 M1183.7,127.4v-1.9h3.3l-0.9,1.9H1183.7z M1186.4,127.4l0.9-1.9h0.3l0.9,1.9H1186.4z M1190.5,127.4h-1.6l-0.9-1.9h2.5V127.4z
			 M1190.5,120.2v4.4h-6.8v-1h-7.8v1h-61.5v-0.8l80-35.2v0.6h0.7v2.1h-0.7v28.9H1190.5z M1206.5,176.7v9l-19.1-9H1206.5z
			 M1187.2,177.8l19.3,9.1l-13.9,6.5h-5.4V177.8z M1187.2,201.1h5.2l10,4.7h-15.2V201.1z M1187.2,209.2h16.5l-16.5,7.8V209.2z
			 M1187.2,218.2l19.1-9h0.3v9.2h-19.4V218.2z M1187.2,221.6h4.2l15,7.1l-4.3,2h-15V221.6z M1187.2,234h8l-8,3.8V234z M1187.2,239.1
			l10.7-5h8.7v9.2h-11l-8.4-4V239.1z M1187.2,240.5l5.7,2.7h-5.7V240.5z M1187.2,246.5h12.7l6.6,3.1l-12.8,6h-6.5V246.5z
			 M1187.2,259.9l2.2-1h17.1v10.3l-9.2-4.3v-4.2h-3.9v2.4l-6.3-3V259.9z M1187.2,261.4l6.3,3v5.4h-6.3V261.4z M1108.2,308.6h9.6v6.2
			h-9.6V308.6z M1108.2,322.2h9.6v11h-9.6V322.2z M1108.2,347.6h9.6v12.7h-9.6V347.6z M1108.2,374.7h9.6v12.7h-9.6V374.7z
			 M1108.2,401.9h9.6v12.7h-9.6V401.9z M1108.2,429h9.6v12.7h-9.6V429z M1108.2,456.2h9.6v12.7h-9.6V456.2z M1108.2,483.3h9.6V496
			h-9.6V483.3z M1108.2,510.4h9.6v12.7h-9.6V510.4z M1108.2,537.6h9.6v12.7h-9.6V537.6z M1108.2,564.7h9.6v12.7h-9.6V564.7z
			 M1108.2,591.8h9.6v12.7h-9.6V591.8z M1108.2,619h9.6v12.7h-9.6V619z M1108.2,646.1h9.6v12.7h-9.6V646.1z M1096.7,306.7h5.9v8.2
			h-5.9V306.7z M1096.7,322.2h5.9v11h-4.9v3h-0.9V322.2z M1096.7,344.9h0.9v2.7h4.9v12.7h-4.9v3h-0.9V344.9z M1096.7,372.1h0.9v2.7
			h4.9v12.7h-4.9v3h-0.9V372.1z M1096.7,399.2h0.9v2.7h4.9v12.7h-4.9v3h-0.9V399.2z M1096.7,426.3h0.9v2.7h4.9v12.7h-4.9v3h-0.9
			V426.3z M1096.7,453.5h0.9v2.7h4.9v12.7h-4.9v3h-0.9V453.5z M1096.7,480.6h0.9v2.7h4.9V496h-4.9v3h-0.9V480.6z M1096.7,507.8h0.9
			v2.7h4.9v12.7h-4.9v3h-0.9V507.8z M1096.7,534.9h0.9v2.7h4.9v12.7h-4.9v3h-0.9V534.9z M1096.7,562h0.9v2.7h4.9v12.7h-4.9v3h-0.9
			V562z M1096.7,589.2h0.9v2.7h4.9v12.7h-4.9v3h-0.9V589.2z M1096.7,616.3h0.9v2.7h4.9v12.7h-4.9v3h-0.9V616.3z M1096.7,643.4h0.9
			v2.7h4.9v12.7h-4.9v3h-0.9V643.4z M1069.5,343.8h3.1v1.1h21.6v18.4h-21.6v3h-3.1V343.8z M1069.5,370.9h3.1v1.1h21.6v18.4h-21.6v3
			h-3.1V370.9z M1069.5,398.1h3.1v1.1h21.6v18.4h-21.6v3h-3.1V398.1z M1069.5,425.2h3.1v1.1h21.6v18.4h-21.6v3h-3.1V425.2z
			 M1069.5,452.4h3.1v1.1h21.6v18.4h-21.6v3h-3.1V452.4z M1069.5,479.5h3.1v1.1h21.6V499h-21.6v3h-3.1V479.5z M1069.5,506.6h3.1v1.1
			h21.6v18.4h-21.6v3h-3.1V506.6z M1069.5,533.8h3.1v1.1h21.6v18.4h-21.6v3h-3.1V533.8z M1069.5,560.9h3.1v1.1h21.6v18.4h-21.6v3
			h-3.1V560.9z M1069.5,588.1h3.1v1.1h21.6v18.4h-21.6v3h-3.1V588.1z M1069.5,615.2h3.1v1.1h21.6v18.4h-21.6v3h-3.1V615.2z
			 M1069.5,642.3h3.1v1.1h21.6v18c-1.2-0.1-2.3,0.1-3.2,0.5h-18.4v3h-3.1V642.3z M1064,343.8h4.7v22.6h-4.7V343.8z M1064,370.9h4.7
			v22.6h-4.7V370.9z M1064,398.1h4.7v22.6h-4.7V398.1z M1064,425.2h4.7v22.6h-4.7V425.2z M1064,452.4h4.7v22.6h-4.7V452.4z
			 M1064,479.5h4.7v22.6h-4.7V479.5z M1064,506.6h4.7v22.6h-4.7V506.6z M1064,533.8h4.7v22.6h-4.7V533.8z M1064,560.9h4.7v22.6h-4.7
			V560.9z M1064,588.1h4.7v22.6h-4.7V588.1z M1064,615.2h4.7v22.6h-4.7V615.2z M1064,642.3h4.7v22.6h-4.7V642.3z M1059.6,343.8h1.8
			v22.6h-1.8V343.8z M1059.6,370.9h1.8v22.6h-1.8V370.9z M1059.6,398.1h1.8v22.6h-1.8V398.1z M1059.6,425.2h1.8v22.6h-1.8V425.2z
			 M1059.6,452.4h1.8v22.6h-1.8V452.4z M1059.6,479.5h1.8v22.6h-1.8V479.5z M1059.6,506.6h1.8v22.6h-1.8V506.6z M1059.6,533.8h1.8
			v22.6h-1.8V533.8z M1059.6,560.9h1.8v22.6h-1.8V560.9z M1059.6,588.1h1.8v22.6h-1.8V588.1z M1059.6,615.2h1.8v22.6h-1.8V615.2z
			 M1059.6,642.3h1.8v22.6h-1.8V642.3z M1043.1,343.8h14v22.6h-14V343.8z M1043.1,370.9h14v22.6h-14V370.9z M1043.1,398.1h14v22.6
			h-14V398.1z M1043.1,425.2h14v22.6h-14V425.2z M1043.1,452.4h14v22.6h-14V452.4z M1043.1,479.5h14v22.6h-14V479.5z M1043.1,506.6
			h14v22.6h-14V506.6z M1043.1,533.8h14v22.6h-14V533.8z M1043.1,560.9h14v22.6h-14V560.9z M1043.1,588.1h14v22.6h-14V588.1z
			 M1043.1,615.2h14v22.6h-14V615.2z M1043.1,642.3h14v22.6h-14V642.3z M1050.6,669.5c-0.6,0.8-1.1,1.7-1.9,2.3
			c-1.4,1-4,0.4-5.6,1.9v-4.1H1050.6z M1039.7,343.8h2.6v22.6h-2.6V343.8z M1039.7,370.9h2.6v22.6h-2.6V370.9z M1039.7,398.1h2.6
			v22.6h-2.6V398.1z M1039.7,425.2h2.6v22.6h-2.6V425.2z M1039.7,452.4h2.6v22.6h-2.6V452.4z M1039.7,479.5h2.6v22.6h-2.6V479.5z
			 M1039.7,506.6h2.6v22.6h-2.6V506.6z M1039.7,533.8h2.6v22.6h-2.6V533.8z M1039.7,560.9h2.6v22.6h-2.6V560.9z M1039.7,588.1h2.6
			v22.6h-2.6V588.1z M1039.7,615.2h2.6v22.6h-2.6V615.2z M1039.7,642.3h2.6v22.6h-2.6V642.3z M1042.2,669.5v5.6
			c-0.3,1.3,0.1,2.8-1.1,3.9c-0.4,0.4-0.9,0.7-1.5,0.8v-10.3H1042.2z"/>
	</g>
	<path id="XMLID_16916_" class="st4" d="M1391.3,705.7l-2.4,6.3c-0.1-0.1-0.2-0.3-0.3-0.4c-0.5-0.5-1.1-0.4-1.6-0.7
		c-1.1-0.6-0.7-0.8-1.4-1.5c-0.3-0.3-0.6-0.2-0.9-0.5c-0.7-0.6-1.5-1.1-2.3-1.7c-1.1-0.9-1.2-0.7-2.5-0.4c-1.8,0.5-1.6-0.2-2.9-1.2
		c-1.2-0.9-3.2-2-4.7-2.5c-0.2,1.5-1.1,1.5-1.5,0.3c-0.4-0.9,0.1-2.4-0.6-3.1c-0.6-0.6-1.6-0.4-2.4-0.5c-1.5-0.1-3-0.3-4.5-0.5
		c-1.5-0.2-3.4-1.4-4.8-0.8c-1.7,0.8-1.5,2.5-3.6,2.3c-1.1-0.1-1.8-0.1-2.9,0.1c-1.4,0.2-2.2,0.9-3.5,1.3c-1,0.3-1.6-0.1-2.5-0.2
		c-2.4-0.3-2.5,2-4.3,2.8c-0.7,0.3-1.7,0-2.4,0.3c-0.6,0.3-0.9,0.8-1.5,1.1c-1.8,0.8-4.9,0.1-6.5,1.3c-0.8,0.5-0.7,1.5-1.2,2.2
		c-0.5,0.5-1.5,0.5-1.9,1.3c-0.3,0.7,0.3,1.3-0.1,1.9c-0.8,1.2-3,0.5-4.5,1V564.4h-12.6l-3.5,3.5v30.2h-20.6v48.3h-9.1v-26.7h-20.1
		v52.9l-12.6,12.6v-98.7h-15.6v-10.6h-15.6V591h-17.1v108.8h-6.5v8.1h-7.6V603.1h-41.3V579h-30.7v21.1h-11.6v20.6h-7v6.5h-35.2
		l-19.3,19.3v83h-38.6v-38.3h-24.2V659h-45.8v86.4c-17.7,1.5-43.3,3.8-67.6,5.9l0.2-0.1l-0.4-0.8c0.3-0.2,0.6-0.4,0.9-0.6l0.6,0.6
		l1.2-1.2l-0.6-0.6c0.2-0.3,0.5-0.6,0.7-0.9l0.8,0.4l0.7-1.5l-0.8-0.4c0.1-0.4,0.2-0.7,0.3-1.1l0.9,0.1l0.2-1.7l-0.9-0.1
		c0-0.2,0-0.4,0-0.6c0-0.2,0-0.4-0.1-0.6l0.8-0.2l-0.3-1.3c1.4-0.1,3.3-0.3,4.7-0.4c1.2-0.1,2-0.9,1.9-2c0-0.3,0-0.6-0.1-0.9l3.4,1
		c0.2,0.1,0.4-0.1,0.5-0.3l0.1-0.5l4.5,1.5l2.2,7.5l10.4-0.8c-6.6-6.4-10.4-14.7-12.4-24.3l-4,0.3l1.7,10l-7-4.9
		c-0.6-0.4-1.4-0.5-2.1-0.3l-4.2,1.2c-0.1,0-0.2-0.1-0.2-0.1l-0.3,0c-0.6-2.2-2.6-3.8-5-3.6l-0.2,0l0-0.4c0-0.4-0.3-0.7-0.7-0.7
		c-0.4,0-0.7,0.3-0.7,0.7l0,0.4l-0.8,0.1l-0.2-2.5l-11.3,0.9l0.2,2.5l-3.9,0.3l-0.1-1c0-0.1-0.2-0.2-0.3-0.1c-0.3,0.6-0.8,1-1.3,1.2
		l-0.3-3.4l0.5,0c0.6,0,1-0.5,0.9-1.1l-0.2-2.3c0-0.1-0.1-0.2-0.3-0.2l-0.1,0c-0.1,0-0.3-0.1-0.3-0.2l-0.2-2.5
		c0-0.1-0.1-0.2-0.3-0.2l-0.7,0.1l-0.1-0.9l1-0.1c0,0.2,0.1,0.3,0.2,0.4c0.3,0.4,1,0.3,1.6-0.2c0.5-0.5,0.7-1.2,0.3-1.5
		c-0.3-0.4-1-0.3-1.6,0.2c-0.2,0.2-0.4,0.5-0.5,0.8l-1,0.1l-0.2-3.2c0-0.2-0.2-0.3-0.3-0.3l-0.8,0.1l-15.2,1.2l-0.2-3.1l-0.5,0
		l0.2,3.1l-1.3,0.1l-0.1,0l-0.8,0.1c-0.2,0-0.3,0.2-0.3,0.3l0.8,11l-0.6,2.6l-1.1,0.1l-0.1-1.6l-4.6,0.4l0.1,1.7
		c-2.8,0.5-4.5,4.8-4.5,4.8l3.1-0.2l0.1,0.8l-1.6,1.6l0.9,0.9c-0.3,0.4-0.7,0.9-0.9,1.3l-1.1-0.5l-1.1,2.2l1.1,0.5
		c-0.2,0.5-0.3,1-0.4,1.6l-1.2-0.1l-0.2,2.5l1.2,0.1c0,0.3,0,0.5,0,0.8c0,0.3,0.1,0.5,0.1,0.8l-1.2,0.3l0.6,2.4l1.2-0.3
		c0.2,0.5,0.4,1,0.7,1.5l-1,0.7l1.4,2l1-0.7c0.4,0.4,0.7,0.8,1.1,1.2l-0.7,1l2,1.4l0.7-1c0.5,0.3,1,0.5,1.5,0.7l-0.3,1.2l2.4,0.7
		l0.3-1.2c0.5,0.1,1.1,0.1,1.6,0.2l0.1,1c-16.7,1.5-28.2,2.6-28.7,2.9c-0.7,0.3-11.6-4.7-24.3-10.8c0.3-0.1,0.5-0.3,0.7-0.6l0.3-0.4
		c-2.7-1.5-2.4-3.8-1.6-6c0.3-0.8,1.1-0.7,0-1.6c-0.4-0.3-1.5-0.3-2-0.5c-3.2-1.1-5.8-3.4-5.9-6.9c-1-0.3-1.8-0.6-2.8-0.5
		c-0.6,0.1-2.1,0.9-2.8,0.4c-1.2-0.9-0.1-3.1-1.5-4c-1.4-0.9-3.2-1.4-4.7-2.3c-1.2-0.8-2.8-0.9-3.9-1.7c0.2-0.3,0.1-0.9,0.3-1.2
		c-0.7-0.4-1.2-0.5-1.7-1.2c-0.5-0.8,0.1-1.9-0.2-2.5c-1-1.7-4.7-0.7-5.5-2.5c-0.4-0.8,0.4-1.4,0.1-2.1c-0.3-0.9-1.5-1.1-1.9-1.7
		c-0.5-0.8-0.3-1.8-1-2.5c-1.6-1.5-5-1.2-6.9-2.4c-0.7-0.4-0.8-1-1.5-1.4c-0.7-0.5-1.8-0.3-2.5-0.7c-1.9-1.1-1.7-3.6-4.3-3.6
		c-1,0-1.7,0.3-2.8-0.1c-1.3-0.6-2.1-1.5-3.6-1.9c-0.2-0.1-0.4-0.1-0.6-0.2v-6.6h0.9v-0.8h-0.9v-7.6h0.9v-0.8h-0.9v-7.6h0.9v-0.8
		h-0.9v-7.6h0.9V666h-0.9v-4.4h-0.2v4.4H710v-4.4h-0.2v4.4h-0.9v-4.4h-1.6v4.4h-6.8v-4.4h-0.2v4.4h-1.8v-4.4h-1.6v4.4h-1.1v-1.1H695
		v-3.2h-0.6v3.2h-1v-1.1h-1.8v-2.1h-0.2v2.1h-1.9v1.1h-3.2v-1.1h-1.4v-2.1h-0.7v2.1h-0.6v-2.1h-0.2v2.1h-1.4v-2.1h-1.6v2.1h-1.2
		v-2.1h-0.7v2.1h-1.6v-2.1h-1.6v2.1h-2.2v-2.1H638v0.1h-0.3v-0.1H637v0.1h-6.2v0.9h-0.9v-0.9h-0.2v0.9h-1.3v-0.9h-0.7v0.9H627v-0.9
		h-0.7v0.9h-4v-0.9H622v0.9h-0.7v-0.9h-0.7v0.9h-3.2v0.7h1.8v0.7h1.4v6.5h-3.2v0.7h1.8v0.7h1.4v6.5h-3.2v0.7h1.8v0.7h1.4v6.5h-3.2
		v0.7h1.8v0.7h1.4v6.5h-3.2v0.7h1.8v0.7h1.4v5.7l-8.4-3.9h-61.3v16.4h-23.2c0.5-0.7,0.7-1.4,0.8-2.3c0-0.2,0-0.4,0-0.6h0.3v0.3
		c0,0,0,0.1,0,0.1c0,0,0.1,0,0.1,0h2.4c0.1,0,0.1-0.1,0.1-0.1v-1.9c0-0.1-0.1-0.1-0.1-0.1h-0.4v-0.2h0c0,0,0.1,0,0.1-0.1v-0.3v-0.1
		V708h0.1c0.2,0,0.2-0.3,0-0.3h-0.1v-0.2h0.1c0.2,0,0.2-0.3,0-0.3h-0.1V707h0.1c0.2,0,0.2-0.3,0-0.3h-0.1v-0.2h0.1
		c0.2,0,0.2-0.3,0-0.3h-0.1V706v-0.3h0.1c0.1,0,0.1,0,0.1-0.1v-1.8c0-0.1,0-0.1-0.1-0.1h-0.1v-0.1c0,0,0,0,0,0h0.2v-0.4h-0.4l-0.8-1
		c-0.1-0.1-0.1-0.2-0.1-0.3l-0.1-0.3l-0.3-1.2l-0.4-1.8l-0.6-2.5c0,0,0,0,0,0v0c0,0,0,0,0,0c-0.1-0.3-0.3-0.5-0.6-0.5h-5.3v-0.2
		c0-0.1-0.1-0.1-0.1-0.1H522v-0.8c0-0.5-0.4-1-1-1s-1,0.4-1,1v0.8h-0.3c-0.1,0-0.1,0.1-0.1,0.1v0.2h-1.9h-0.5v-5.7h-1.7v-0.2v-0.4
		h-3.7v-0.6c0-0.1-0.1-0.1-0.1-0.1h-0.7c-0.1,0-0.1,0.1-0.1,0.1v0.6h-5.2v-0.6c0-0.1-0.1-0.1-0.1-0.1H505c-0.1,0-0.1,0.1-0.1,0.1
		v0.6h-5.2v-0.6c0-0.1-0.1-0.1-0.1-0.1H499c-0.1,0-0.1,0.1-0.1,0.1v0.6h-5.2v-0.6c0-0.1-0.1-0.1-0.1-0.1h-0.6
		c-0.1,0-0.1,0.1-0.1,0.1v0.6h-5.2v-0.6c0-0.1-0.1-0.1-0.1-0.1h-0.6c-0.1,0-0.1,0.1-0.1,0.1v0.6h-5.2v-0.6c0-0.1-0.1-0.1-0.1-0.1
		h-0.6c-0.1,0-0.1,0.1-0.1,0.1v4.9l-2.6,2.5v-3.6v-0.1v0c0.3-0.2,0.5-0.5,0.5-0.8c0-0.5-0.4-0.9-0.9-0.9c-0.5,0-0.9,0.4-0.9,0.9
		c0,0.3,0.2,0.6,0.5,0.8v0.3v4.3l-2.2,2.1c0,0-0.1,0.1-0.1,0.2v14.2c0,0.1,0.1,0.2,0.2,0.2h5.3c0.1,0,0.2-0.1,0.2-0.2v-1.5h2.2
		c0.1,0.7,0.4,1.3,0.7,1.8h-11.9c0.6-0.3,1-0.8,1-1.5l0.2-0.6c-1.7-0.3-2.8-0.9-3.6-1.8v-39.5h-1v37.6c-0.4-1.1-0.5-2.4-0.5-3.7
		c0-1.2,1.1-1.5-0.7-2.2c-0.6-0.2-2.2,0.3-2.9,0.3c-2.5,0-4.9-0.4-6.9-1.5v-13.6h-33.8c-0.1-0.2-0.2-0.4-0.3-0.5
		c-2.2-1.8-6.7,1.4-8.7-0.6c-0.9-0.9-0.2-2-0.9-2.9c-0.2-0.3-0.5-0.5-0.8-0.6v-29.7h-10l-11.2,7.8v12.6H374v2.5c-0.1,0-0.2,0-0.3,0
		c-1.7,0.1-2.9,0.3-4.5,0.8c-3.1,1-3.3-1.6-6.2-2.3c-2.4-0.6-4.9,2-7.2,2.8c-2.3,0.8-4.5,1.6-6.8,2.3c-1.1,0.3-2.9,0.4-3.5,1.5
		c-0.8,1.4,0.4,3.4,0.2,5c-0.3,1.9-1.6,2.2-2.5,0c-2.1,1.4-4.8,3.6-6.3,5.5c-1.7,2-1.2,3-4,2.8c-2.1-0.1-2.2-0.3-3.6,1.4
		c-1,1.1-2,2.2-3,3.4c-0.4,0.5-0.9,0.5-1.2,1.1c-0.8,1.4-0.1,1.5-1.6,2.8c-0.8,0.6-1.7,0.6-2.3,1.6c-0.5,0.8-0.4,1.9-0.7,2.9
		c-0.1,0.2-0.1,0.3-0.2,0.5h-9.7c-2.4-1.8-4.2-4.3-5-7.6c-1.3-0.1-2.5-0.3-3.8-0.2v-4.5h-11.2c-0.2-0.1-0.4-0.3-0.7-0.4
		c-2-0.8-4.4-1.2-6.7-1.7v-22.9h-24v9.9c-2.1,0.1-4,0-5-1.4c-1-1.4,0.2-2.9-0.6-4.3c-1-1.7-3.3-1.5-4.4-2.6
		c-1.3-1.3-1.3-3.5-3.1-4.6c-3.9-2.3-10.4-0.3-14.6-1.9c-1.5-0.5-2-1.6-3.5-2.2c-1.6-0.6-3.7,0.2-5.3-0.4c-4.1-1.4-4.9-6.3-10-5.4
		c-2,0.4-3.3,1.4-5.5,0.9c-2.9-0.6-4.7-2.1-7.9-2.3c-2.3-0.1-4.1-0.1-6.4,0.3c-4.6,0.8-4.3-2.9-8.2-4.4c-3.2-1.3-7.2,1.8-10.5,2.4
		c-3.3,0.7-6.6,1.4-9.9,1.9c-1.7,0.2-4,0-5.2,1.5c-1.4,1.8-0.1,4.9-0.8,6.9c-0.9,2.6-2.7,2.7-3.5-0.5c-0.7,0.3-1.5,0.7-2.3,1.2v-9.3
		h-27.1v-5.2H94.1v26.3H76.4v-58H29.6v26.5H0v161.3h469.4v-2.9c30.2,9.7,129.7,41.4,134,41.2c5.1-0.2,266.9,12.9,285.8,9.3
		c19-3.6,168.4-20.4,167.7-22.6c-0.1-0.4-3.8-3.7-9.7-8.8h289.3v-28.3h63.5v-89.7H1391.3z M879.6,736.1l0.7,2.3l-4.2-1.3l0.1-0.3
		c0-0.2-0.1-0.4-0.2-0.4l-4.1-1.3c0-0.5-0.1-0.9-0.1-1.2L879.6,736.1z M864.7,737.4c0.4-0.5,0.6-1.1,0.6-1.8l0-0.1l1.4-0.4l0,0.1
		c0.1,1.6-1,2.9-2.6,3l0,0L864.7,737.4z M525.4,696.2C525.4,696.2,525.5,696.1,525.4,696.2l1.8-0.1c0,0,0.1,0,0.1,0.1l1.1,5
		c0,0.1,0,0.1-0.1,0.1h-2.8c0,0-0.1,0-0.1-0.1V696.2z M518.7,696.2C518.7,696.2,518.8,696.1,518.7,696.2l5.1-0.1c0,0,0.1,0,0.1,0.1
		v5c0,0,0,0.1-0.1,0.1h-5c0,0-0.1,0-0.1-0.1V696.2z M516.5,711.7v-0.4h0.9v-0.2h2.1c0,0,0,0,0,0c0,0,0.1,0,0.1-0.1c0,0,0,0,0,0v-0.3
		h0.5c0,0.1,0,0.2,0,0.3c0,0.9,0.3,1.8,0.8,2.5h-19c0.4-0.5,0.6-1.1,0.7-1.8H516.5z M491.3,711.7h2.9c0.1,0.7,0.4,1.3,0.7,1.8h-4.4
		C490.9,713,491.2,712.4,491.3,711.7z M325.2,728.9c0,0,0.1,0,0.1,0c0,0.1,0,0.2,0,0.2c0.1,0.8,0.2,1.5,0.2,2h-0.4V728.9z
		 M622,701.8l-0.7-0.3v-6.1h0.7V701.8z M622,694h-0.7v-6.5h0.7V694z M622,686.1h-0.7v-6.5h0.7V686.1z M622,678.3h-0.7v-6.5h0.7
		V678.3z M622,670.4h-0.7v-6.5h0.7V670.4z M626.3,703.8l-1.3-0.6h1.3V703.8z M626.3,701.8h-4v-6.5h4V701.8z M626.3,694h-4v-6.5h4
		V694z M626.3,686.1h-4v-6.5h4V686.1z M626.3,678.3h-4v-6.5h4V678.3z M626.3,670.4h-4v-6.5h4V670.4z M627.5,704.4l-0.5-0.2v-1h0.5
		V704.4z M627.5,701.8H627v-6.5h0.5V701.8z M627.5,694H627v-6.5h0.5V694z M627.5,686.1H627v-6.5h0.5V686.1z M627.5,678.3H627v-6.5
		h0.5V678.3z M627.5,670.4H627v-6.5h0.5V670.4z M629.6,705.4l-1.3-0.6v-1.6h1.3V705.4z M629.6,701.8h-1.3v-6.5h1.3V701.8z
		 M629.6,694h-1.3v-6.5h1.3V694z M629.6,686.1h-1.3v-6.5h1.3V686.1z M629.6,678.3h-1.3v-6.5h1.3V678.3z M629.6,670.4h-1.3v-6.5h1.3
		V670.4z M637,708.8L637,708.8l-7.1-3.3v-2.3h0.9v0.3h6.2V708.8z M637,701h-6.2v0.9h-0.9v-6.5h0.9v0.3h6.2V701z M637,693.1h-6.2v0.9
		h-0.9v-6.5h0.9v0.3h6.2V693.1z M637,685.3h-6.2v0.9h-0.9v-6.5h0.9v0.3h6.2V685.3z M637,677.4h-6.2v0.9h-0.9v-6.5h0.9v0.3h6.2V677.4
		z M637,669.6h-6.2v0.9h-0.9v-6.5h0.9v0.3h6.2V669.6z M710,667.7h0.5v-0.8h1.1v7.6H710V667.7z M710,676.1h0.5v-0.8h1.1v7.6H710
		V676.1z M710,684.6h0.5v-0.8h1.1v7.6H710V684.6z M710.5,693v-0.8h1.1v6.6c-0.6-0.1-1.1-0.2-1.7-0.3V693H710.5z M708.8,667.7h0.9
		v6.7h-0.9V667.7z M708.8,676.1h0.9v6.7h-0.9V676.1z M708.8,684.6h0.9v6.7h-0.9V684.6z M709.7,693v5.4c-0.1,0-0.2,0-0.3,0
		c-0.2,0-0.5,0-0.7-0.1V693H709.7z M700.3,667.7h6.8v6.7h-6.8V667.7z M700.3,676.1h6.8v6.7h-6.8V676.1z M700.3,684.6h6.8v6.7h-6.8
		V684.6z M707.1,693v3.9c-0.3-0.5-0.6-1-1.3-1.4c-1.4-0.9-3.7,0.1-5.4,0.1c-0.1,0-0.1,0-0.2,0V693H707.1z M698.2,667.7h1.8v6.7h-1.8
		V667.7z M698.2,676.1h1.8v6.7h-1.8V676.1z M698.2,684.6h1.8v6.7h-1.8V684.6z M700.1,693v2.6c-0.6,0-1.2,0-1.8,0V693H700.1z
		 M695,668.5h0.5v-0.7h1.1v6.7h-1.1v-1.1H695V668.5z M695,676.9h0.5v-0.7h1.1v6.7h-1.1v-1.1H695V676.9z M695,685.3h0.5v-0.7h1.1v6.7
		h-1.1v-1.1H695V685.3z M695.6,693.8V693h1.1v2.5c-0.4,0-0.7,0-1.1,0c-0.2,0-0.3,0-0.5-0.1v-1.7H695.6z M691.7,668.5h2.7v4.9h-1
		h-1.8V668.5z M691.7,676.9h2.7v4.9h-2.1v-1.1h-0.6V676.9z M691.7,685.3h2.7v4.9h-1v-1.1h-1.8V685.3z M691.7,693.8h2.7v1.6
		c-0.6-0.1-1.1-0.1-1.6,0.3c-0.5,0.4-0.6,1.1-0.7,1.9h-0.5V693.8z M684.9,669.1h1.4v-0.7h5.2v4.9h-1.9h-3.2v-1.1h-1.4V669.1z
		 M684.9,677.5h1.4v-0.7h5.2v3.7h-3.1v1.1h-2v-1.1h-1.4V677.5z M684.9,686h1.4v-0.7h5.2v3.7h-1.9v1.1h-3.2v-1.1h-1.4V686z
		 M684.9,694.4h1.4v-0.7h5.2v3.7h-1.9v1c-0.1,0-0.3,0.1-0.4,0.1h-2.8v-1.1h-1.4V694.4z M683.6,669.1h0.6v3.1h-0.6V669.1z
		 M683.6,677.5h0.6v3.1h-0.6V677.5z M683.6,686h0.6v3.1h-0.6V686z M683.6,694.4h0.6v3.1h-0.6V694.4z M681.9,669.1h1.4v3.1h-1.4
		V669.1z M681.9,677.5h1.4v3.1h-1.4V677.5z M681.9,686h1.4v3.1h-1.4V686z M681.9,694.4h1.4v3.1h-1.4V694.4z M679.1,669.1h1.2v3.1
		h-1.2V669.1z M679.1,677.5h1.2v3.1h-1.2V677.5z M679.1,686h1.2v3.1h-1.2V686z M679.1,694.4h1.2v3.1h-1.2V694.4z M676.8,669.1h1.6
		v3.1h-1.6V669.1z M676.8,677.5h1.6v3.1h-1.6V677.5z M676.8,686h1.6v3.1h-1.6V686z M676.8,694.4h1.6v3.1h-1.6V694.4z M672.9,669.1
		h2.2v3.1h-2.2V669.1z M672.9,677.5h2.2v3.1h-2.2V677.5z M672.9,686h2.2v3.1h-2.2V686z M672.9,694.4h2.2v3.1h-2.2V694.4z
		 M675.1,702.9v0.3c-0.1,0-0.2,0.1-0.3,0.1c-0.9,0.7-0.4,1-1.7,1.4c-0.1,0-0.2,0.1-0.3,0.1v-1.9H675.1z M639.4,707.9H638v0.9h-0.3
		v-5.3h0.3v0.8h1.4V707.9z M639.4,700.1H638v0.9h-0.3v-5.3h0.3v0.8h1.4V700.1z M639.4,692.2H638v0.9h-0.3v-5.3h0.3v0.8h1.4V692.2z
		 M639.4,684.4H638v0.9h-0.3v-5.3h0.3v0.8h1.4V684.4z M639.4,676.5H638v0.9h-0.3v-5.3h0.3v0.8h1.4V676.5z M639.4,668.7H638v0.9h-0.3
		v-5.3h0.3v0.8h1.4V668.7z M643.8,707.9h-2.8v-3.7h2.8V707.9z M643.8,700.1h-2.8v-3.7h2.8V700.1z M643.8,692.2h-2.8v-3.7h2.8V692.2z
		 M643.8,684.4h-2.8v-3.7h2.8V684.4z M643.8,676.5h-2.8v-3.7h2.8V676.5z M643.8,668.7h-2.8V665h2.8V668.7z M840.6,746.8l-4.7,0.4
		l-0.1-1.4l4.7-0.4L840.6,746.8z M840.4,744.2l0.1,0.8l-4.7,0.4l-0.1-0.8L840.4,744.2z M834.2,727.4c-0.2-0.3-0.6-0.2-0.8-0.7
		c-0.1-0.4-0.1-0.6,0-1.1l0.7-0.1l0.4,0.4l0.4-0.5l-0.6,0.7l2,1.7l0.1,1l-1,1.1l-1.4-1.2C834.6,728.3,834.4,727.7,834.2,727.4z
		 M833.5,724.7l0.4,0.4l0,0.2l-0.5,0.1c0,0,0-0.1,0-0.1c0-0.1,0-0.3-0.1-0.4L833.5,724.7z M833.1,724.5c-0.3-0.2-0.7-0.3-1.2-0.4
		c-0.8-0.2-1.2-0.4-1.2-0.8c0-0.4,0.2-0.6,0.4-0.6c0.3,0,1.4,0.6,1.6,0.7c0.2,0.1,0.7-0.1,0.7-0.1l0.1,0.6L833.1,724.5z
		 M833.6,724.5l0.9-1l-0.1,1.4l-0.3,0L833.6,724.5z M838.1,716.5l0.6,7.6c0,0.2-0.1,0.4-0.3,0.4l-0.1,0c-0.2,0-0.4-0.1-0.4-0.3
		l-0.5-6.7L838.1,716.5z M825.3,716.4l9.5-0.7c0.7-0.1,1.3,0.4,1.5,1l-12.4,0.9C824.1,716.9,824.6,716.4,825.3,716.4z M836.4,717
		C836.4,717,836.4,717,836.4,717l0.5,6.8l-0.6,0l-1.3,1.5l-0.3-0.3l0.1-1.8l0.6-0.7l-0.3-0.2l-0.6,0.7L834,723c0,0-0.1-0.3-0.4-0.6
		c-0.4-0.3-1.9-1.2-2.8-1.8c-0.2-0.1-0.5-0.2-0.9-0.3c0.1-0.1,0.1-0.3,0.1-0.5l0.1,0c0-0.2,0.1-0.3,0-0.5c-0.1-0.7-0.7-1.3-1.3-1.2
		c-0.6,0-1,0.5-1.1,1.1l0.2,0.1c-0.1,0.2-0.1,0.3-0.1,0.5c0,0.2,0.1,0.3,0.1,0.4c-0.2,0-0.3,0-0.3,0l-0.3,0l-0.1-0.8l-1.2,0.1
		c0,0,0.3,4.2,0.4,5.7l-2.3-2l-0.4-5.3c0,0,0,0,0,0L836.4,717z M823.6,754.7l-0.1-1c0.5-0.1,1.1-0.2,1.6-0.4l0.5,1.1l2.3-1l-0.5-1.1
		c0.5-0.3,0.9-0.6,1.3-0.9l0.9,0.9l1.8-1.7l-0.9-0.9c0.3-0.4,0.7-0.9,0.9-1.3l1.1,0.5l1.1-2.2l-1.1-0.5c0.2-0.5,0.3-1,0.4-1.6
		c0,0.1-0.1,0.2-0.1,0.3l2.3-0.2l0.1,0.8l0,0.4l0.1,1.4l0,0.4l0.5,0l4.7-0.4l0.5,0l0-0.4l-0.1-1.4l0-0.4l-0.1-0.8l7.8-0.6
		c0,0.1,0,0.3,0,0.4c0,0.2,0,0.4,0.1,0.6l-0.8,0.2l0.4,1.7l0.8-0.2c0.1,0.4,0.3,0.7,0.5,1l-0.7,0.5l1,1.4l0.7-0.5
		c0.2,0.3,0.5,0.6,0.8,0.8l-0.5,0.7l1.4,1l0.5-0.7c0.3,0.2,0.7,0.3,1,0.5l-0.2,0.8l0.5,0.1C843.2,752.9,832.7,753.8,823.6,754.7z
		 M855.4,751.8l0.1-0.4c0.4,0.1,0.7,0.1,1.1,0.1l0,0.2C856.2,751.7,855.8,751.8,855.4,751.8z M858.4,751.5l0-0.1
		c0.4-0.1,0.7-0.2,1.1-0.3l0.1,0.3C859.2,751.5,858.8,751.5,858.4,751.5z"/>
	<path id="XMLID_16488_" class="st5" d="M1318,836v-25.5h-98.4v-21.6h-62.3v18.6h-26.3l-17,17V883h-91l4.6-3.9l-2.7-3.2
		c1.3-1.3,2.4-2.7,3.5-4.2l3.6,2.1l4.2-7.2l-3.6-2.1c0.7-1.7,1.4-3.4,1.9-5.1l4.1,0.7l1.4-8.2l-4.1-0.7c0.1-0.9,0.1-1.8,0.1-2.7
		c0-0.9,0-1.8-0.1-2.7l4.1-0.7l-1.4-8.2l-4.1,0.7c-0.5-1.8-1.1-3.5-1.9-5.1l3.6-2.1l-4.2-7.2l-3.6,2.1c-1.1-1.5-2.2-2.9-3.5-4.2
		l2.7-3.2l-5.9-4.9v-2.6h10.3c0,0-7-14.7-17.1-14.9v0c0-2.7-2.2-4.9-4.9-4.9l0,0c-2.7,0-4.9,2.2-4.9,4.9c-5.2,0-8.6,0-8.6,0
		l-2.6-8.6v-21.2h3.4c1.3,0,2.3-1,2.3-2.3c0-1.3-1-2.3-2.3-2.3h-3.4v-7.4h1.2h0.2c1.3,0,2.3-1,2.3-2.3c0-1.3-1-2.3-2.3-2.3h-0.2
		h-1.2h-3.7h-0.2h-4.4v-10.3h-1.6V749h-51.2h-3.8h-1.3c-1.3,0-2.3,1-2.3,2.3c0,1.3,1,2.3,2.3,2.3h1.3v7.1h-3.4
		c-0.3-0.9-0.9-1.7-1.8-2.4c-1.9-1.4-4.2-1.5-5.3-0.2c-1,1.3-0.4,3.6,1.5,5.1c1.9,1.4,4.2,1.5,5.3,0.2c0.3-0.4,0.5-0.9,0.5-1.4h3.2
		v2.9h-2.4c-0.5,0-0.8,0.4-0.8,0.8v8.4c0,0.5-0.4,0.8-0.8,0.8h-0.3c-0.5,0-0.8,0.4-0.8,0.8v7.8c0,1.9,1.5,3.4,3.4,3.4h1.8v11.5
		c-2-0.5-3.5-1.7-4.7-3.6c-0.2-0.4-0.8-0.2-0.8,0.2v3.3h-6v-25.8h-3.8v-3.9c0-0.5,0.4-0.9,0.9-0.9h2.9v-4.2h-3.8
		c-2.3,0-4.2,1.9-4.2,4.2v4.8h-3.4v25.8h-36.7V797c0-1.3-1-2.3-2.3-2.3c-1.3,0-2.3,1-2.3,2.3v1.4h-0.7c-3.1,0-6.1,0.9-8.6,2.5h-5.4
		v5.7c0,0,0,0,0,0.1l-6.9,3.1h-64.8v-2.6l-7.1-6.3V849h-19.9l-0.2-12.6l-6.9,0.1c0,0,1.6,25.8-4.1,44.7c-2.4-4-2.4-9.2-1.7-14.5
		c0.4-3.1,3.5-3.4-1.1-5.8c-1.6-0.8-5.7-0.1-7.5-0.4c-12.5-1.6-23.6-7.9-26.8-20.6c-3.8-0.4-7-0.8-10.6,0.3c-2.2,0.7-6.9,5-9.7,3.7
		c-4.9-2.3-2.6-11.1-8.4-13.4c-5.7-2.2-12.9-2.7-19-4.9c-5-1.8-10.9-1.1-15.4-3.2c0.3-1.4-0.2-3.2,0.3-4.6c-2.9-0.8-4.9-0.8-7.1-3.2
		c-2.3-2.5-0.9-7-2.6-8.8c-5-5.5-17.7,1-22-4.8c-1.9-2.5,0.3-5.3-1.2-7.8c-1.8-3.2-6.1-2.8-8.1-4.7c-2.5-2.4-2.4-6.4-5.7-8.4
		c-7.2-4.3-19.2-0.6-26.9-3.4c-2.7-1-3.7-3-6.4-4c-3-1.1-6.8,0.4-9.8-0.6c-7.6-2.7-9-11.7-18.4-9.9c-3.6,0.7-6.1,2.6-10.2,1.7
		c-5.4-1.2-8.7-3.8-14.5-4.2c-4.3-0.3-7.5-0.2-11.8,0.5c-8.4,1.5-8-5.3-15.2-8.1c-5.9-2.3-13.3,3.3-19.4,4.5
		c-6.1,1.2-12.1,2.6-18.2,3.5c-3,0.5-7.4-0.1-9.6,2.7c-2.5,3.3-0.1,9-1.4,12.8c-1.6,4.8-4.9,5-6.4-0.9c-5.9,2.8-13.7,7.5-18.3,11.7
		c-5,4.5-4.1,7.2-11.4,5.7c-5.3-1-5.4-1.6-9.8,2.3c-2.9,2.5-6.1,4.9-8.8,7.6c-1.2,1.2-2.5,1-3.5,2.3c-2.6,3.2-0.7,3.8-5.1,6.5
		c-1.1,0.7-2.2,0.9-3.3,1.2h-50.3v13h-21.9l-62.7,10.9l-27-9.6c-4.9-15.4-3.5-37-3.5-37l-5.6-0.1l-0.1,10.2h-16.1v-39l-5.7,5.1v2.1
		h-52.5l-5.6-2.5c0,0,0,0,0,0v-4.6h-4.4c-2-1.3-4.4-2-6.9-2h-0.6v-1.1c0-1-0.8-1.9-1.9-1.9c-1,0-1.9,0.8-1.9,1.9v1.1H69.2v-20.9
		h-2.8v-3.9c0-1.9-1.5-3.4-3.4-3.4H60v3.4h2.4c0.4,0,0.7,0.3,0.7,0.7v3.2H60v20.9h-4.8v-2.7c0-0.4-0.5-0.5-0.7-0.2
		c-1,1.5-2.2,2.5-3.8,2.9V749h1.4c1.5,0,2.7-1.2,2.7-2.7V740c0-0.4-0.3-0.7-0.7-0.7h-0.2c-0.4,0-0.7-0.3-0.7-0.7v-6.8
		c0-0.4-0.3-0.7-0.7-0.7h-1.9v-2.3h2.6c0,0.4,0.1,0.8,0.4,1.2c0.8,1.1,2.8,1,4.3-0.2c1.5-1.2,2-3,1.2-4.1c-0.8-1.1-2.8-1-4.3,0.2
		c-0.7,0.6-1.2,1.3-1.4,2h-2.7v-5.7h1c1,0,1.9-0.8,1.9-1.9c0-1-0.8-1.9-1.9-1.9h-1h-3.1H6.1V710H4.8v8.4H1.3H1.1H0v91.3v21V980h1400
		V835C1381.3,832.7,1318,836,1318,836z M44.1,735.6l2.3-2.4v20.7c0,0.5-0.4,1-1,1h-0.4c-0.5,0-1-0.4-1-1V735.6z M47.1,808.8v2.1
		H34.2v-2.1H47.1z M11.8,730.2h26c1.8,0,3.4,1.3,3.8,3H7.9C8.4,731.4,9.9,730.2,11.8,730.2z M21.3,735.7c-1.6,0-2.9,1.2-3.2,2.7
		l0.6,0.2c-0.2,0.4-0.3,0.9-0.3,1.4c0,0.4,0.1,0.8,0.2,1.2c-0.6,0-0.9,0-0.9,0h-0.9v-2.2h-3.2c0,0,0,11.5,0,15.5l-5.7-6v-14.4
		c0,0,0,0,0-0.1h34c0,0,0,0,0,0.1v18.5H40l-3.8,3.8l-0.9-0.9l0.6-4.9l1.8-1.8l-0.7-0.7l-1.7,1.7l-1.1,0.1c0,0-0.1-0.9-1.1-1.7
		c-1-0.8-4.9-3.6-7.2-5.4c-0.6-0.5-1.4-0.8-2.3-1c0.2-0.4,0.4-0.8,0.5-1.2l0.4,0.1c0.2-0.4,0.2-0.9,0.2-1.3
		C24.7,737.4,23.2,735.7,21.3,735.7z M31.9,754.7l0.8-0.8l-0.4,0.4l1,1.1l0,0.6l-1.3,0.1c0-0.1,0-0.2,0-0.4
		C32,755.3,32,755,31.9,754.7z M32.8,753.8l2.5-2.5l-0.6,3.7h-0.8L32.8,753.8z M25,749.9c0.1-1,0.6-1.5,1.3-1.4s3.6,2,4.1,2.3
		c0.5,0.2,2,0,2,0l0.2,1.6l-1.3,1.3c-0.7-0.6-1.8-1-3-1.4C26.1,751.8,25,751,25,749.9z M32.8,810.8v1v2.4l-6.8-3.9
		c0.3-0.8,0.6-1.6,0.8-2.5c-0.1,0.3-0.2,0.6-0.3,0.9h6.2V810.8z M33.7,761.9c-0.5-0.8-1.5-0.8-1.9-2c-0.3-1-0.1-1.7,0.1-3l1.9-0.1
		l1.1,1l1.3-1.2l-1.8,1.8l5,5v2.7l-2.9,2.9l-3.6-3.6C34.5,764.4,34.1,762.6,33.7,761.9z M34.2,815v-3.2h12.9v3.9H35.3L34.2,815z
		 M82.1,830.1l-11.8,5.9L37,816.7h10.1h1.4v-1v-3.9v-1v-2.1h21.4c0,0.4,0,0.8,0,1.2c0,0.5,0,1,0.1,1.5l-2.3,0.4l0.8,4.6l2.3-0.4
		c0.3,1,0.6,1.9,1,2.9l-2,1.2l2.3,4l2-1.2c0.6,0.8,1.3,1.6,2,2.3l-1.5,1.8l3.6,3l1.5-1.8c0.8,0.6,1.7,1.1,2.6,1.5L82.1,830.1z
		 M145,771.4l2.4-1.8h25.3v21.8L129,771.6C136,771.5,145,771.4,145,771.4z M134,786.7l16.8,4.4l15.1,9.7l-32.1-0.1
		c0.1-0.4,0.2-0.9,0.2-1.4C134.1,795.1,134,789.4,134,786.7z M116.2,777.7h0.7c0.6,0,1.2-0.5,1.2-1.2c0-0.6-0.5-1.2-1.2-1.2h-0.7
		v-0.8h0.4l0,0l9.1,0.2l20.8,12.1l-19.5-4.9l-4.1-1.9c-0.8-0.3-1.6-0.2-2.1,0.3l-2.8-0.7c0,0,0,0,0-0.1c0-0.6-0.5-1.2-1.2-1.2h-0.7
		V777.7z M112.5,796.9l1.8-1.8c1.2-1.2,1.9-2.9,1.9-4.7V784h0.7c0.6,0,1.2-0.5,1.2-1.2c0-0.1,0-0.2-0.1-0.3l2.2,0.6v6.3
		c0,4.2-3.4,7.7-7.7,7.7L112.5,796.9z M176.8,826.5l-11.7-3.6l-3.6-13.9l-17.5-1.5l-29.5,4l-0.6-0.1c0-0.5,0.1-1,0.1-1.5
		c0-0.5,0-1-0.1-1.5l2.3-0.4l-0.7-3.7c3.9,0,9,0,12.9,0c1.2,0,2.3-0.3,3.1-0.8l39.4,4.4c0,0,12.9,9.8,23.3,17.5L176.8,826.5z
		 M850.6,843.6l2.3,2.3l-0.1,0.2c-5.2,0-9.5-4.3-9.5-9.5v-7.8l2.7-0.7c0,0.1-0.1,0.3-0.1,0.4c0,0.8,0.6,1.4,1.4,1.4h0.9v7.9
		C848.2,840,849.1,842.1,850.6,843.6z M847.7,818.4L847.7,818.4l0.6-0.1v1h-0.9c-0.8,0-1.4,0.6-1.4,1.4s0.6,1.4,1.4,1.4h0.9v1h-0.9
		c-0.8,0-1.4,0.6-1.4,1.4c0,0,0,0.1,0,0.1l-3.4,0.9c-0.7-0.6-1.7-0.8-2.6-0.4l-5.1,2.3l-24.1,6l25.6-14.9L847.7,818.4z M826.5,850.5
		l-39.5,0.1l18.6-11.9l20.8-5.5c0,3.3-0.1,10.4-0.1,15.5C826.2,849.4,826.3,850,826.5,850.5z M778.6,812.2h31.3l2.9,2.3
		c0,0,11,0.1,19.8,0.2l-54,24.4V812.2z M856.9,883h-67.2h-6.6h-33.9c13.2-9.6,31.5-23.5,31.5-23.5l48.6-5.5c1.1,0.6,2.4,1,3.9,1
		c4.8,0,11.1,0,15.9,0l-0.8,4.6l2.9,0.5c0,0.6-0.1,1.2-0.1,1.9c0,0.6,0,1.3,0.1,1.9l-2.9,0.5l1,5.6l2.8-0.5c0.3,1.2,0.8,2.4,1.3,3.5
		l-2.5,1.4l2.9,5l2.5-1.4c0.7,1,1.5,2,2.4,2.9L856.9,883z M945.1,763.5h32.1c2.3,0,4.2,1.5,4.7,3.6h-41.6
		C940.9,765.1,942.8,763.5,945.1,763.5z M934.4,767.2l2.8,3v22.5c0,0.7-0.5,1.2-1.2,1.2h-0.5c-0.7,0-1.2-0.5-1.2-1.2V767.2z
		 M933.6,860.5h15.9v2.6h-15.9V860.5z M947,796l1.6,1.5l1.3-1.3l2.4,0.1c0.2,1.6,0.5,2.5,0.1,3.7c-0.5,1.5-1.8,1.5-2.4,2.5
		c-0.5,0.9-1,3.2,1,4.2l-4.5,4.5l-3.6-3.6v-3.4l6.1-6.1L947,796z M951.3,792.8l1,1c-0.1,0.4-0.2,0.8-0.2,1.2c0,0.2,0,0.3,0,0.5
		l-1.6-0.1l0-0.7l1.3-1.4L951.3,792.8z M951.4,791l0.2-2c0,0,1.8,0.3,2.5,0c0.6-0.3,4.2-2.8,5-2.8c0.9-0.1,1.5,0.5,1.6,1.7
		c0.1,1.3-1.3,2.3-3.9,3c-1.5,0.5-2.9,0.9-3.8,1.7L951.4,791z M949.8,794.1h-1l-0.7-4.5l3.1,3.1L949.8,794.1z M933.6,864.2h15.9v4.8
		h-15.9V864.2z M899.6,883l-1.8-2.1c0.9-0.9,1.7-1.9,2.4-2.9l2.5,1.4l2.9-5l-2.5-1.4c0.5-1.1,0.9-2.3,1.3-3.5l2.8,0.5l1-5.6
		l-2.9-0.5c0-0.6,0.1-1.2,0.1-1.9c0-0.5,0-1,0-1.5h26.4v2.6v1.2v4.8v1.2h1.8h15.9h1.8v-1.2v-4.8v-1.2v-2.6h7.7
		c-0.1-0.4-0.2-0.8-0.3-1.1c0.5,1.8,1.1,3.5,1.9,5.1l-3.6,2.1l4.2,7.2l3.6-2.1c1.1,1.5,2.2,2.9,3.5,4.2l-2.7,3.2l4.6,3.9H899.6z
		 M972.9,883l1.5-1.8c0.9,0.6,1.9,1.2,2.9,1.8H972.9z M982.1,786.3l-7,7.4c0-4.9,0-19.1,0-19.1h-4v2.7h-1.2c0,0-0.4,0-1.1,0
		c0.2-0.5,0.3-1,0.3-1.5c0-0.6-0.1-1.2-0.4-1.7l0.7-0.2c-0.5-1.9-2.1-3.4-4-3.4c-2.3,0-4.1,2-4.1,4.5c0,0.6,0.1,1.1,0.3,1.7l0.5-0.2
		c0.1,0.6,0.3,1.1,0.6,1.5c-1.1,0.3-2.1,0.7-2.9,1.2c-2.8,2.2-7.6,5.6-8.9,6.6c-1.2,1-1.3,2.1-1.3,2.1l-1.4-0.1l-2.1-2.1l-0.9,0.9
		l2.2,2.2l0.8,6.1L947,796l-4.7-4.7h-2.1v-22.9c0,0,0-0.1,0-0.1h41.9c0,0,0,0.1,0,0.1V786.3z M1015.6,883c1-0.6,2-1.1,2.9-1.8
		l1.5,1.8H1015.6z"/>
	<g id="XMLID_16577_">
		<path id="XMLID_16635_" class="st6" d="M13.5,739.1h3.2v2.2h0.9c0,0,0.3,0,0.9,0c-0.1-0.4-0.2-0.8-0.2-1.2c0-0.5,0.1-0.9,0.3-1.4
			l-0.6-0.2c0.2-0.9,0.8-1.7,1.5-2.2l-11-2.2H7.8c0,0,0,0,0,0.1v14.4l5.7,6C13.5,750.6,13.5,739.1,13.5,739.1z"/>
		<path id="XMLID_16636_" class="st6" d="M44.1,753.8c0,0.5,0.4,1,1,1h0.4c0.5,0,1-0.4,1-1v-14.6h-2.3V753.8z"/>
		<path id="XMLID_16637_" class="st6" d="M116.9,777.7h-0.7v0.8h0.7c0.6,0,1.2,0.5,1.2,1.2c0,0,0,0,0,0.1l2.8,0.7
			c0.5-0.5,1.4-0.7,2.1-0.3l4.1,1.9l19.5,4.9l-20.8-12.1l-9.1-0.2l0,0h-0.4v0.8h0.7c0.6,0,1.2,0.5,1.2,1.2
			C118.1,777.2,117.6,777.7,116.9,777.7z"/>
		<polygon id="XMLID_16638_" class="st6" points="47.1,815.7 47.1,811.8 34.2,811.8 34.2,815 35.3,815.7 		"/>
		<path id="XMLID_16639_" class="st6" d="M114.5,811.6l29.5-4l17.5,1.5l3.6,13.9l11.7,3.6l17.5-1.1c-10.4-7.6-23.3-17.5-23.3-17.5
			l-39.4-4.4c-0.9,0.5-2,0.8-3.1,0.8c-3.9,0-9,0-12.9,0l0.7,3.7l-2.3,0.4c0,0.5,0.1,1,0.1,1.5c0,0.5,0,1-0.1,1.5L114.5,811.6z"/>
		<path id="XMLID_16640_" class="st6" d="M116.2,790.4c0,1.8-0.7,3.4-1.9,4.7l-1.8,1.8l0.1,0.1c4.2,0,7.7-3.4,7.7-7.7v-6.3l-2.2-0.6
			c0,0.1,0.1,0.2,0.1,0.3c0,0.6-0.5,1.2-1.2,1.2h-0.7V790.4z"/>
		<path id="XMLID_16641_" class="st6" d="M145,771.4c0,0-8.9,0.1-16,0.1l43.7,19.8v-21.8h-25.3L145,771.4z"/>
		<path id="XMLID_16642_" class="st6" d="M165.9,800.8l-15.1-9.7l-16.8-4.4c0,2.7,0,8.4,0,12.6c0,0.5-0.1,0.9-0.2,1.4L165.9,800.8z"
			/>
		<path id="XMLID_16643_" class="st6" d="M32.9,765.3l3.6,3.6l2.9-2.9v-2.7l-5-5l1.8-1.8l-1.3,1.2l-1.1-1l-1.9,0.1
			c-0.2,1.3-0.4,2-0.1,3c0.4,1.2,1.5,1.2,1.9,2C34.1,762.6,34.5,764.4,32.9,765.3z"/>
		<path id="XMLID_16644_" class="st6" d="M48.5,808.8v2.1v1v3.9v1h-1.4H37l33.4,19.3l11.8-5.9l0.1-0.3c-0.9-0.4-1.8-1-2.6-1.5
			l-1.5,1.8l-3.6-3l1.5-1.8c-0.7-0.7-1.4-1.5-2-2.3l-2,1.2l-2.3-4l2-1.2c-0.4-0.9-0.8-1.9-1-2.9l-2.3,0.4l-0.8-4.6l2.3-0.4
			c0-0.5-0.1-1-0.1-1.5c0-0.4,0-0.8,0-1.2H48.5z"/>
		<path id="XMLID_16645_" class="st6" d="M24.1,740.6c-0.1,0.5-0.2,0.9-0.5,1.2c0.9,0.2,1.7,0.6,2.3,1c2.2,1.7,6.2,4.6,7.2,5.4
			c1,0.8,1.1,1.7,1.1,1.7l1.1-0.1l1.7-1.7l0.7,0.7l-1.8,1.8l-0.6,4.9l0.9,0.9l3.8-3.8h1.7v-13.5h-7.3l-10.5-2.1
			c0.5,0.6,0.7,1.4,0.7,2.2c0,0.5-0.1,0.9-0.2,1.3L24.1,740.6z"/>
		<path id="XMLID_16646_" class="st6" d="M843.3,828.8v7.8c0,5.2,4.2,9.5,9.5,9.5l0.1-0.2l-2.3-2.3c-1.5-1.5-2.4-3.6-2.4-5.8V830
			h-0.9c-0.8,0-1.4-0.6-1.4-1.4c0-0.1,0-0.3,0.1-0.4L843.3,828.8z"/>
		<path id="XMLID_16647_" class="st6" d="M1015.6,883h4.4l-1.5-1.8C1017.6,881.8,1016.6,882.4,1015.6,883z"/>
		<polygon id="XMLID_16648_" class="st6" points="34.7,755 35.3,751.3 32.8,753.8 33.9,755 		"/>
		<rect id="XMLID_16649_" x="34.2" y="808.8" class="st6" width="12.9" height="2.1"/>
		<path id="XMLID_16650_" class="st6" d="M28.2,752.4c1.2,0.4,2.3,0.7,3,1.4l1.3-1.3l-0.2-1.6c0,0-1.5,0.2-2,0
			c-0.5-0.2-3.4-2.2-4.1-2.3s-1.2,0.4-1.3,1.4C25,751,26.1,751.8,28.2,752.4z"/>
		<path id="XMLID_16651_" class="st6" d="M32.8,811.8v-1v-2.1h-6.2c0.1-0.3,0.2-0.6,0.3-0.9c-0.2,0.8-0.5,1.7-0.8,2.5l6.8,3.9V811.8
			z"/>
		<path id="XMLID_16652_" class="st6" d="M33.3,755.9l0-0.6l-1-1.1l0.4-0.4l-0.8,0.8c0.1,0.3,0.1,0.6,0.1,1c0,0.1,0,0.3,0,0.4
			L33.3,755.9z"/>
		<path id="XMLID_16653_" class="st6" d="M940.1,791.3h2.1l4.7,4.7l1.1-1.2l-0.8-6.1l-2.2-2.2l0.9-0.9l2.1,2.1l1.4,0.1
			c0,0,0.1-1.1,1.3-2.1c0.8-0.6,3.2-2.4,5.6-4.1c-5.6,0.1-11.1,0.3-16.2,0.4V791.3z"/>
		<path id="XMLID_16654_" class="st6" d="M956.8,791c2.6-0.8,4.1-1.7,3.9-3c-0.1-1.3-0.8-1.8-1.6-1.7c-0.9,0.1-4.4,2.5-5,2.8
			c-0.6,0.3-2.5,0-2.5,0l-0.2,2l1.7,1.7C953.9,791.8,955.3,791.4,956.8,791z"/>
		<polygon id="XMLID_16655_" class="st6" points="948.8,794.1 949.8,794.1 951.2,792.7 948.1,789.6 		"/>
		<path id="XMLID_16656_" class="st6" d="M950.5,795.3l1.6,0.1c0-0.1,0-0.3,0-0.5c0-0.5,0-0.9,0.2-1.2l-1-1l0.4,0.4l-1.3,1.4
			L950.5,795.3z"/>
		<path id="XMLID_16657_" class="st6" d="M975,781.3c0,4.4,0,9.7,0,12.4l7-7.4v-5.1C979.7,781.2,977.4,781.2,975,781.3z"/>
		<path id="XMLID_16660_" class="st6" d="M57.9,729.8c-1.2,0.9-2.7,1.2-3.6,0.7c-0.6,0.2-1.1,0.2-1.6,0.7c0.3,0.1,0.6,0.3,0.6,0.6
			v6.8c0,0.4,0.3,0.7,0.7,0.7h0.2c0.4,0,0.7,0.3,0.7,0.7v6.3c0,1.5-1.2,2.7-2.7,2.7h-1.4v9.3c1.6-0.4,2.9-1.4,3.8-2.9
			c0.2-0.3,0.7-0.2,0.7,0.2v2.7H60v-20.9h3.1v-3.2c0-0.4-0.3-0.7-0.7-0.7H60v-3.4h3.1c1.9,0,3.4,1.5,3.4,3.4v3.9h2.8v20.9h29.7v-1.1
			c0-1,0.8-1.9,1.9-1.9c1,0,1.9,0.8,1.9,1.9v1.1h0.6c2.6,0,4.9,0.7,6.9,2h4.4v4.6c0,0,0,0,0,0l5.6,2.5h52.5v-2.1l5.7-5.1v39h16.1
			l0.1-10.2l5.6,0.1c0,0-1.4,21.6,3.5,37l27,9.6l62.7-10.9h21.9v-13h50.3c1.1-0.3,2.2-0.5,3.3-1.2c4.4-2.6,2.5-3.2,5.1-6.5
			c1-1.3,2.3-1.1,3.5-2.3c2.7-2.6,5.9-5,8.8-7.6c4.4-3.9,4.5-3.4,9.8-2.3c7.3,1.4,6.4-1.2,11.4-5.7c4.6-4.1,12.4-8.9,18.3-11.7
			c1.4,5.8,4.8,5.6,6.4,0.9c1.3-3.8-1.1-9.5,1.4-12.8c2.1-2.8,6.5-2.2,9.6-2.7c6.1-0.9,12.1-2.3,18.2-3.5c6.1-1.2,13.5-6.8,19.4-4.5
			c7.2,2.8,6.7,9.6,15.2,8.1c4.2-0.8,7.5-0.8,11.8-0.5c5.8,0.4,9.2,3,14.5,4.2c4.1,0.9,6.6-1,10.2-1.7c9.5-1.8,10.9,7.2,18.4,9.9
			c2.9,1,6.8-0.5,9.8,0.6c2.7,1,3.7,3,6.4,4c7.7,2.8,19.7-0.9,26.9,3.4c3.3,2,3.2,6,5.7,8.4c2,1.9,6.4,1.6,8.1,4.7
			c1.4,2.6-0.7,5.3,1.2,7.8c4.3,5.8,17-0.8,22,4.8c1.6,1.8,0.3,6.3,2.6,8.8c2.2,2.4,4.2,2.4,7.1,3.2c-0.5,1.4,0,3.2-0.3,4.6
			c4.6,2.1,10.5,1.4,15.4,3.2c6.1,2.2,13.2,2.7,19,4.9c5.8,2.2,3.5,11.1,8.4,13.4c2.8,1.3,7.5-3,9.7-3.7c3.6-1.1,6.9-0.7,10.6-0.3
			c3.2,12.7,14.2,19,26.8,20.6c1.9,0.2,6-0.5,7.5,0.4c4.5,2.4,1.5,2.7,1.1,5.8c-0.7,5.3-0.7,10.5,1.7,14.5
			c5.7-18.9,4.1-44.7,4.1-44.7l6.9-0.1l0.2,12.6h19.9v-48.1l7.1,6.3v2.6h64.8l6.9-3.1c0,0,0,0,0-0.1v-5.7h5.4
			c2.5-1.6,5.4-2.5,8.6-2.5h0.7V797c0-1.3,1-2.3,2.3-2.3c1.3,0,2.3,1,2.3,2.3v1.4h36.7v-14.6c-0.4,0.1-0.7,0.1-1,0.2
			c-4.5,1.2-44.8-0.8-78.7-2.9l2.1-23.6c0-0.1,0-0.2-0.1-0.3L825,753l0.7-7.8l0-0.6c0.5-0.2,0.9-0.7,1-1.4c0.1-0.9-0.6-1.7-1.5-1.8
			s-1.7,0.6-1.8,1.5c-0.1,0.6,0.2,1.2,0.7,1.5v0l0,0.3l-0.6,6.5l-4.3-4.9l0.8-8.7c0-0.1-0.1-0.2-0.2-0.2l-1.1-0.1
			c-0.1,0-0.2,0.1-0.2,0.2l-0.1,1l-9.3-0.8l0.1-1c0-0.1-0.1-0.2-0.2-0.2l-1.1-0.1c-0.1,0-0.2,0.1-0.2,0.2l-0.1,1l-9.3-0.8l0.1-1
			c0-0.1-0.1-0.2-0.2-0.2l-1.1-0.1c-0.1,0-0.2,0.1-0.2,0.2l-0.1,1l-9.3-0.8l0.1-1c0-0.1-0.1-0.2-0.2-0.2l-1.1-0.1
			c-0.1,0-0.2,0.1-0.2,0.2l-0.1,1l-9.3-0.8l0.1-1c0-0.1-0.1-0.2-0.2-0.2l-1.1-0.1c-0.1,0-0.2,0.1-0.2,0.2l-0.1,1l-9.3-0.8l0.1-1
			c0-0.1-0.1-0.2-0.2-0.2l-1.2-0.1c-0.1,0-0.2,0.1-0.2,0.2l-0.1,1l-6.6-0.6l-0.1,0.8l0,0.4l-3.1-0.3l-0.9,10.3l-0.9-0.1L749,744
			l0-0.4c0-0.1-0.1-0.2-0.2-0.3l-0.5,0l0.1-1.4c0.1-0.9-0.6-1.8-1.6-1.9c-0.9-0.1-1.8,0.6-1.9,1.6l-0.1,1.4l-0.6-0.1
			c-0.1,0-0.2,0.1-0.3,0.2l0,0.4l-9.5-0.8c-0.6,0-1.1,0.3-1.2,0.8c0,0,0,0,0,0v0c0,0,0,0,0,0l-1.4,4.4l-1,3.2l-0.7,2.1l-0.2,0.6
			c-0.1,0.2-0.2,0.3-0.3,0.5l-1.7,1.7l-0.7-0.1l-0.1,0.8l0.4,0c0,0,0,0,0,0.1l0,0.2l-0.2,0c-0.1,0-0.2,0.1-0.2,0.2l-0.3,3.3
			c0,0.1,0.1,0.2,0.2,0.2l0.2,0l0,0.5l0,0.5l-0.2,0c-0.3,0-0.3,0.5,0,0.5l0.2,0l0,0.4l-0.2,0c-0.3,0-0.3,0.5,0,0.5l0.2,0l0,0.4
			l-0.2,0c-0.3,0-0.3,0.5,0,0.5l0.2,0l0,0.4l-0.2,0c-0.3,0-0.3,0.5,0,0.5l0.2,0l0,0.5l0,0.2l0,0.5c0,0.1,0,0.1,0.1,0.1l0,0l0,0.3
			l-0.8-0.1c-0.1,0-0.2,0.1-0.2,0.2l-0.2,2.5c0,0-0.1,0-0.1,0c-0.7,0.2-2.3,1.6-3.2,1.2c-1.6-0.8-0.9-3.7-2.8-4.4
			c-1.9-0.7-4.3-0.9-6.3-1.6c-1.7-0.6-3.6-0.4-5.1-1.1c0.1-0.5-0.1-1.1,0.1-1.5c-1-0.3-1.6-0.3-2.4-1.1c-0.8-0.8-0.3-2.3-0.8-2.9
			c-1.7-1.8-5.9,0.3-7.3-1.6c-0.6-0.8,0.1-1.8-0.4-2.6c-0.6-1-2-0.9-2.7-1.6c-0.8-0.8-0.8-2.1-1.9-2.8c-2.4-1.4-6.4-0.2-8.9-1.1
			c-0.9-0.3-1.2-1-2.1-1.3c-1-0.4-2.3,0.1-3.2-0.2c-2.5-0.9-3-3.9-6.1-3.3c-1.2,0.2-2,0.9-3.4,0.6c-1.8-0.4-2.9-1.3-4.8-1.4
			c-1.4-0.1-2.5-0.1-3.9,0.2c-2.8,0.5-2.7-1.8-5-2.7c-2-0.8-4.4,1.1-6.4,1.5c-2,0.4-4,0.9-6.1,1.2c-1,0.1-2.5,0-3.2,0.9
			c-0.8,1.1,0,3-0.5,4.3c-0.5,1.6-1.6,1.7-2.1-0.3c-0.9,0.4-1.9,1-2.9,1.6v-14.6h-27.7v-57.6h-20.6v56.1h-10.4v-56.1h-20.6v56.1H531
			V761l-31.2-2.4l-63.4-26.2h-74.1l-23.2,21.5l-6.5,1.2c-0.1-0.4-0.3-0.8-0.4-1.2c-2-0.2-3.8-0.4-5.7,0.2c-1.2,0.4-3.7,2.7-5.3,2
			c-2.7-1.2-1.4-6-4.6-7.2c-3.1-1.2-7-1.5-10.3-2.7c-2.7-1-5.9-0.6-8.4-1.7c0.2-0.8-0.1-1.7,0.2-2.5c-1.6-0.5-2.7-0.5-3.8-1.7
			c-1.2-1.4-0.5-3.8-1.4-4.8c-2.7-3-9.6,0.6-11.9-2.6c-1-1.4,0.2-2.9-0.6-4.3c-1-1.7-3.3-1.5-4.4-2.6c-1.3-1.3-1.3-3.5-3.1-4.6
			c-3.9-2.3-10.4-0.3-14.6-1.9c-1.5-0.5-2-1.6-3.5-2.2c-1.6-0.6-3.7,0.2-5.3-0.4c-4.1-1.4-4.9-6.3-10-5.4c-2,0.4-3.3,1.4-5.5,0.9
			c-2.9-0.6-4.7-2.1-7.9-2.3c-2.3-0.1-4.1-0.1-6.4,0.3c-4.6,0.8-4.3-2.9-8.2-4.4c-3.2-1.3-7.2,1.8-10.5,2.4
			c-3.3,0.7-6.6,1.4-9.9,1.9c-1.7,0.2-4,0-5.2,1.5c-1.4,1.8-0.1,4.9-0.8,6.9c-0.9,2.6-2.7,2.7-3.5-0.5c-3.2,1.5-7.4,4.1-9.9,6.3
			c-2.7,2.4-2.2,3.9-6.2,3.1c-2.9-0.6-3-0.9-5.3,1.3c-1.5,1.4-3.3,2.7-4.8,4.1c-0.7,0.6-1.4,0.6-1.9,1.2c-0.5,0.7-0.7,1.1-0.9,1.5
			c-1-0.2-2-0.4-2.9-0.8c-1.7-0.6-3.6-0.4-5.1-1.1c0.1-0.5-0.1-1.1,0.1-1.5c-1-0.3-1.6-0.3-2.4-1.1c-0.8-0.8-0.3-2.3-0.8-2.9
			c-1.7-1.8-5.9,0.3-7.3-1.6c-0.6-0.8,0.1-1.8-0.4-2.6c-0.6-1-2-0.9-2.7-1.6c-0.8-0.8-0.8-2.1-1.9-2.8c-2.4-1.4-6.4-0.2-8.9-1.1
			c-0.9-0.3-1.2-1-2.1-1.3c-1-0.4-2.3,0.1-3.2-0.2c-2.5-0.9-3-3.9-6.1-3.3c-1.2,0.2-2,0.9-3.4,0.6c-1.8-0.4-2.9-1.3-4.8-1.4
			c-1.4-0.1-2.5-0.1-3.9,0.2c-2.8,0.5-2.7-1.8-5-2.7c-2-0.8-4.4,1.1-6.4,1.5c-2,0.4-4,0.9-6.1,1.2c-1,0.1-2.5,0-3.2,0.9
			c-0.8,1.1,0,3-0.5,4.3c-0.5,1.6-1.6,1.7-2.1-0.3c-2,0.9-4.5,2.5-6.1,3.9c-1.6,1.5-1.4,2.4-3.8,1.9c-1.8-0.3-1.8-0.5-3.3,0.8
			c-0.4,0.3-0.8,0.7-1.2,1C59.9,727,59.3,728.7,57.9,729.8z M812.2,779l4,0.4l-0.1,1c-1.5-0.1-2.9-0.2-4.3-0.3
			C812,779.8,812.1,779.4,812.2,779z M792,777.2l5.3,0.5c0,0.5,0.1,1.1,0.3,1.6c-2.2-0.1-4.2-0.3-6.1-0.4
			C791.7,778.4,791.9,777.8,792,777.2z M752,773l-0.1,0.7l25.1,2.2c0,0.7,0.2,1.4,0.4,2.1h-35.6c2.2-1.2,3.8-3.5,4-6.2
			c0-0.2,0-0.4,0-0.6l0.8,0.1l-0.1,0.6c0,0,0,0,0,0.1c0,0.1,0.1,0.1,0.1,0.1c0,0,0.1,0,0.1,0l3.7,0.3l0,0.4L752,773z M741.2,744.7
			c0-0.1,0.1-0.2,0.2-0.1l9,0.8c0.1,0,0.2,0.1,0.1,0.2l-0.8,9c0,0.1-0.1,0.2-0.2,0.1l-9-0.8c-0.1,0-0.2-0.1-0.1-0.2L741.2,744.7z
			 M735.1,744.1c0-0.1,0.1-0.1,0.2-0.1l3.1,0.3c0.1,0,0.2,0.1,0.1,0.2l-0.8,8.9c0,0.1-0.1,0.2-0.2,0.1l-5-0.4
			c-0.1,0-0.2-0.1-0.1-0.2L735.1,744.1z M730.1,770.6c0.1,0,0.1,0,0.2,0c0,0,0.1-0.1,0.1-0.1l0.1-0.6l0.5,0c-0.1,0.3-0.1,0.7-0.1,1
			c0,0.5,0,1,0.1,1.5c-0.4-0.5-0.8-1.1-1.1-1.8L730.1,770.6z"/>
		<path id="XMLID_16668_" class="st6" d="M1365.3,786c2.9-1.6,4.9-4.6,5-8.1c0-0.4,0-0.9-0.1-1.3h0.6v0.7c0,0.1,0,0.1,0.1,0.2
			c0,0,0.1,0.1,0.2,0.1h5.4c0.2,0,0.3-0.1,0.3-0.3v-4.2c0-0.2-0.1-0.3-0.3-0.3h-1v-0.4h0c0.1,0,0.2-0.1,0.2-0.2v-0.7v-0.3v-0.6h0.2
			c0.4,0,0.4-0.6,0-0.6h-0.2v-0.5h0.2c0.4,0,0.4-0.6,0-0.6h-0.2v-0.5h0.2c0.4,0,0.4-0.6,0-0.6h-0.2v-0.5h0.2c0.4,0,0.4-0.6,0-0.6
			h-0.2V766v-0.6h0.2c0.1,0,0.2-0.1,0.2-0.2V761c0-0.1-0.1-0.2-0.2-0.2h-0.2v-0.3c0,0,0,0,0-0.1h0.5v-1h-0.9l-1.9-2.3
			c-0.1-0.2-0.3-0.4-0.3-0.6l-0.2-0.7l-0.6-2.8l-0.9-4.1l-1.2-5.7c0,0,0,0,0,0v0c0,0,0,0,0,0c-0.1-0.7-0.8-1.2-1.5-1.2h-12.1v-0.5
			c0-0.2-0.1-0.3-0.3-0.3h-0.7v-1.8c0-1.2-1-2.2-2.2-2.2s-2.2,1-2.2,2.2v1.8h-0.7c-0.2,0-0.3,0.1-0.3,0.3v0.5h-4.2h-1.1v-13h-3.9
			v-0.5v-1h-8.3v-1.3c0-0.2-0.1-0.3-0.3-0.3h-1.5c-0.2,0-0.3,0.1-0.3,0.3v1.3h-11.7v-1.3c0-0.2-0.1-0.3-0.3-0.3h-1.4
			c-0.2,0-0.3,0.1-0.3,0.3v1.3h-11.7v-1.3c0-0.2-0.1-0.3-0.3-0.3h-1.4c-0.2,0-0.3,0.1-0.3,0.3v1.3h-11.7v-1.3c0-0.2-0.1-0.3-0.3-0.3
			h-1.4c-0.2,0-0.3,0.1-0.3,0.3v1.3h-11.7v-1.3c0-0.2-0.1-0.3-0.3-0.3h-1.4c-0.2,0-0.3,0.1-0.3,0.3v1.3h-11.7v-1.3
			c0-0.2-0.1-0.3-0.3-0.3h-1.4c-0.2,0-0.3,0.1-0.3,0.3v11l-5.9,5.6v-8.2v-0.3v0c0.6-0.4,1.1-1,1.1-1.8c0-1.2-0.9-2.1-2.1-2.1
			s-2.1,0.9-2.1,2.1c0,0.8,0.4,1.5,1.1,1.8v0.7v9.8l-5,4.7c-0.1,0.1-0.2,0.3-0.2,0.4v32.2c0,0.3,0.3,0.6,0.6,0.6h12
			c0.3,0,0.6-0.3,0.6-0.6V779h5.1c0.3,2,1.3,3.9,2.6,5.3l-19.8-0.4l-17.5-17.5v-10.1h-35v9c-3.2-1.3-4-4.4-4.2-7.8
			c-0.1-1.4,1.3-1.8-1-2.5c-0.8-0.2-2.5,0.4-3.4,0.5c-5.7,0.3-11.2-1.5-13.7-7c-1.7,0.1-3.2,0.2-4.7,1c-0.9,0.5-2.7,2.8-4,2.5
			c-2.4-0.6-2.1-4.8-4.9-5.3c-2.7-0.5-6-0.1-8.9-0.6c-2.4-0.4-5,0.4-7.2-0.1c0-0.6-0.3-1.4-0.3-2.1c-1.4-0.1-2.3,0-3.4-0.8
			c-1.2-0.9-1-3-1.9-3.7c-2.7-2-7.8,1.9-10.2-0.3c-1-1-0.3-2.4-1.2-3.4c-1.1-1.3-3-0.7-4-1.4c-1.3-0.9-1.6-2.7-3.2-3.3
			c-3.6-1.3-8.6,1.3-12.3,0.7c-1.3-0.2-1.9-1-3.2-1.3c-1.4-0.3-3,0.7-4.4,0.5c-3.6-0.6-5-4.5-9.1-2.9c-1.5,0.6-2.5,1.7-4.4,1.6
			c-2.5-0.1-4.2-1-6.8-0.7c-1.9,0.2-3.4,0.5-5.2,1.2c-3.6,1.4-4-1.7-7.4-2.4c-2.8-0.6-5.7,2.6-8.3,3.6c-2.6,1-5.2,2.2-7.8,3.1
			c-1.3,0.5-3.3,0.6-4.1,2c-0.9,1.7,0.7,4,0.4,5.8c-0.3,2.3-1.8,2.6-2.9,0.1c-2.4,1.7-5.5,4.5-7.2,6.7c-1.8,2.4-1.2,3.5-4.6,3.5
			c-2.5,0-2.6-0.3-4.2,1.9c-1.1,1.4-2.3,2.7-3.3,4.1c-0.4,0.6-1,0.7-1.4,1.3c-0.9,1.7,0,1.8-1.7,3.3c-0.9,0.8-1.9,0.8-2.6,2
			c-0.6,1-0.4,2.3-0.7,3.4c-0.5,1.9-1.5,2.4-2.5,3.8c-1.5,2-1.7,4.9-1,7.5c0.1,0.2,0.1,0.4,0.2,0.6c-6.6,0.1-14.6,0.2-23.2,0.3v5.8
			l2.6,8.6c0,0,3.4,0,8.6,0c0-2.7,2.2-4.9,4.9-4.9s4.9,2.2,4.9,4.9v0c10.1,0.3,17.1,14.9,17.1,14.9h-10.3v2.6l5.9,4.9l-2.7,3.2
			c1.3,1.3,2.4,2.7,3.5,4.2l3.6-2.1l4.2,7.2l-3.6,2.1c0.7,1.7,1.4,3.4,1.9,5.1l4.1-0.7l1.4,8.2l-4.1,0.7c0.1,0.9,0.1,1.8,0.1,2.7
			c0,0.9,0,1.8-0.1,2.7l4.1,0.7l-1.4,8.2l-4.1-0.7c-0.5,1.8-1.1,3.5-1.9,5.1l3.6,2.1l-4.2,7.2l-3.6-2.1c-1.1,1.5-2.2,2.9-3.5,4.2
			l2.7,3.2l-4.6,3.9h91v-58.5l17-17h26.3v-18.6h62.3v21.6h98.4V836c0,0,63.4-3.2,82-1v-48.3L1365.3,786z M1283.3,784.5
			c1.5-1.4,2.6-3.4,2.9-5.5h6.6c0.3,2.3,1.5,4.3,3.1,5.8L1283.3,784.5z M1308.3,785c1.8-1.5,3-3.6,3.4-6h31.7v-0.9h2v-0.5h4.7
			c0,0,0.1,0,0.1,0c0.1,0,0.1-0.1,0.2-0.2c0,0,0-0.1,0-0.1v0v-0.7h1.1c0,0.2,0,0.5-0.1,0.7c-0.1,3.6,1.8,6.8,4.7,8.5L1308.3,785z
			 M1360.1,755.2c0,0.1-0.1,0.2-0.2,0.2h-11.3c-0.1,0-0.2-0.1-0.2-0.2v-11.3c0-0.1,0.1-0.2,0.2-0.2h11.3c0.1,0,0.2,0.1,0.2,0.2
			V755.2z M1363.6,755.2v-11.2c0-0.1,0.1-0.2,0.2-0.2h3.9c0.1,0,0.2,0.1,0.2,0.2l2.5,11.2c0,0.1-0.1,0.2-0.2,0.2h-6.3
			C1363.7,755.4,1363.6,755.3,1363.6,755.2z"/>
		<rect id="XMLID_16672_" x="933.6" y="864.2" class="st6" width="15.9" height="4.8"/>
		<path id="XMLID_16673_" class="st6" d="M847.7,818.4l-11.3,0.3l-25.6,14.9l24.1-6l5.1-2.3c0.9-0.4,1.9-0.2,2.6,0.4l3.4-0.9
			c0,0,0-0.1,0-0.1c0-0.8,0.6-1.4,1.4-1.4h0.9v-1h-0.9c-0.8,0-1.4-0.6-1.4-1.4s0.6-1.4,1.4-1.4h0.9v-1L847.7,818.4L847.7,818.4z"/>
		<path id="XMLID_16674_" class="st6" d="M935.6,793.9h0.5c0.7,0,1.2-0.5,1.2-1.2v-10.5c-1,0-1.9,0.1-2.8,0.1v10.4
			C934.4,793.3,934.9,793.9,935.6,793.9z"/>
		<path id="XMLID_16675_" class="st6" d="M783.1,883h6.6h67.2l1.8-2.1c-0.9-0.9-1.7-1.9-2.4-2.9l-2.5,1.4l-2.9-5l2.5-1.4
			c-0.5-1.1-0.9-2.3-1.3-3.5l-2.8,0.5l-1-5.6l2.9-0.5c0-0.6-0.1-1.2-0.1-1.9c0-0.6,0-1.3,0.1-1.9l-2.9-0.5l0.8-4.6
			c-4.8,0-11.1,0-15.9,0c-1.5,0-2.8-0.3-3.9-1l-48.6,5.5c0,0-18.3,13.9-31.5,23.5H783.1z"/>
		<rect id="XMLID_16676_" x="933.6" y="860.5" class="st6" width="15.9" height="2.6"/>
		<path id="XMLID_16677_" class="st6" d="M805.5,838.8l-18.6,11.9l39.5-0.1c-0.2-0.5-0.3-1.1-0.3-1.7c0-5.2,0-12.2,0.1-15.5
			L805.5,838.8z"/>
		<path id="XMLID_16678_" class="st6" d="M900.2,878c-0.7,1-1.5,2-2.4,2.9l1.8,2.1H970l-4.6-3.9l2.7-3.2c-1.3-1.3-2.4-2.7-3.5-4.2
			l-3.6,2.1l-4.2-7.2l3.6-2.1c-0.7-1.7-1.4-3.4-1.9-5.1c0.1,0.4,0.2,0.8,0.3,1.1h-7.7v2.6v1.2v4.8v1.2h-1.8h-15.9h-1.8v-1.2v-4.8
			v-1.2v-2.6h-26.4c0,0.5,0,1,0,1.5c0,0.6,0,1.3-0.1,1.9l2.9,0.5l-1,5.6l-2.8-0.5c-0.3,1.2-0.8,2.4-1.3,3.5l2.5,1.4l-2.9,5
			L900.2,878z"/>
		<path id="XMLID_16679_" class="st6" d="M809.8,812.2h-31.3V839l54-24.4c-8.7,0-19.8-0.2-19.8-0.2L809.8,812.2z"/>
		<path id="XMLID_16680_" class="st6" d="M923.6,795c0-0.5,0.6-0.6,0.8-0.2c1.2,1.8,2.8,3,4.7,3.6v-11.5h-1.8
			c-1.9,0-3.4-1.5-3.4-3.4v-0.8c-2.3,0.1-4.4,0.2-6.4,0.3v15.4h6V795z"/>
		<path id="XMLID_16681_" class="st6" d="M952.4,800.1c0.4-1.2,0.1-2.1-0.1-3.7l-2.4-0.1l-1.3,1.3L947,796l2.2,2.2l-6.1,6.1v3.4
			l3.6,3.6l4.5-4.5c-2-1-1.5-3.3-1-4.2C950.6,801.6,951.9,801.7,952.4,800.1z"/>
		<path id="XMLID_16682_" class="st6" d="M974.4,881.2l-1.5,1.8h4.4C976.4,882.4,975.4,881.8,974.4,881.2z"/>
	</g>
</g>
</svg>
